<?xml version="1.0" encoding="UTF-8" standalone="no"?>
<!DOCTYPE svg PUBLIC "-//W3C//DTD SVG 1.1//EN"
 "http://www.w3.org/Graphics/SVG/1.1/DTD/svg11.dtd">
<!-- Generated by graphviz version 2.43.0 (0)
 -->
<!-- Title: %3 Pages: 1 -->
<svg width="1635pt" height="279pt"
 viewBox="0.00 0.00 1635.39 278.74" xmlns="http://www.w3.org/2000/svg" xmlns:xlink="http://www.w3.org/1999/xlink">
<g id="graph0" class="graph" transform="scale(1 1) rotate(0) translate(4 274.74)">
<title>%3</title>
<polygon fill="white" stroke="transparent" points="-4,4 -4,-274.74 1631.39,-274.74 1631.39,4 -4,4"/>
<!-- 0 -->
<g id="node1" class="node">
<title>0</title>
<ellipse fill="#ffe0b0" stroke="black" cx="1347.43" cy="-134.87" rx="147.57" ry="26.74"/>
<text text-anchor="middle" x="1347.43" y="-138.67" font-family="Times,serif" font-size="14.00">DEFINE_GLOBAL (0, True)</text>
<text text-anchor="middle" x="1347.43" y="-123.67" font-family="Times,serif" font-size="14.00">ptr.dtypes.int</text>
</g>
<!-- 13 -->
<g id="node13" class="node">
<title>13</title>
<ellipse fill="#c0ffc0" stroke="black" cx="1579.3" cy="-62.87" rx="48.17" ry="26.74"/>
<text text-anchor="middle" x="1579.3" y="-66.67" font-family="Times,serif" font-size="14.00">STORE</text>
<text text-anchor="middle" x="1579.3" y="-51.67" font-family="Times,serif" font-size="14.00">None</text>
</g>
<!-- 0&#45;&gt;13 -->
<g id="edge1" class="edge">
<title>0&#45;&gt;13</title>
<path fill="none" stroke="black" d="M1442.68,-114.25C1460.29,-109.7 1478.43,-104.52 1495.22,-98.87 1507.56,-94.72 1520.62,-89.48 1532.63,-84.3"/>
<polygon fill="black" stroke="black" points="1534.27,-87.4 1542.01,-80.18 1531.45,-81 1534.27,-87.4"/>
</g>
<!-- 1 -->
<g id="node2" class="node">
<title>1</title>
<ellipse fill="#ffe0b0" stroke="black" cx="313.19" cy="-243.87" rx="151.14" ry="26.74"/>
<text text-anchor="middle" x="313.19" y="-247.67" font-family="Times,serif" font-size="14.00">DEFINE_GLOBAL (1, False)</text>
<text text-anchor="middle" x="313.19" y="-232.67" font-family="Times,serif" font-size="14.00">ptr.dtypes.int</text>
</g>
<!-- 7 -->
<g id="node8" class="node">
<title>7</title>
<ellipse fill="#ffc0c0" stroke="black" cx="563.44" cy="-209.87" rx="62.87" ry="26.74"/>
<text text-anchor="middle" x="563.44" y="-213.67" font-family="Times,serif" font-size="14.00">LOAD</text>
<text text-anchor="middle" x="563.44" y="-198.67" font-family="Times,serif" font-size="14.00">dtypes.int</text>
</g>
<!-- 1&#45;&gt;7 -->
<g id="edge2" class="edge">
<title>1&#45;&gt;7</title>
<path fill="none" stroke="black" d="M433.59,-227.52C454.02,-224.72 474.63,-221.9 493.19,-219.36"/>
<polygon fill="black" stroke="black" points="493.84,-222.8 503.28,-217.98 492.89,-215.87 493.84,-222.8"/>
</g>
<!-- 2 -->
<g id="node3" class="node">
<title>2</title>
<ellipse fill="#ffe0b0" stroke="black" cx="313.19" cy="-171.87" rx="151.14" ry="26.74"/>
<text text-anchor="middle" x="313.19" y="-175.67" font-family="Times,serif" font-size="14.00">DEFINE_GLOBAL (2, False)</text>
<text text-anchor="middle" x="313.19" y="-160.67" font-family="Times,serif" font-size="14.00">ptr.dtypes.int</text>
</g>
<!-- 8 -->
<g id="node9" class="node">
<title>8</title>
<ellipse fill="#ffc0c0" stroke="black" cx="563.44" cy="-137.87" rx="62.87" ry="26.74"/>
<text text-anchor="middle" x="563.44" y="-141.67" font-family="Times,serif" font-size="14.00">LOAD</text>
<text text-anchor="middle" x="563.44" y="-126.67" font-family="Times,serif" font-size="14.00">dtypes.int</text>
</g>
<!-- 2&#45;&gt;8 -->
<g id="edge3" class="edge">
<title>2&#45;&gt;8</title>
<path fill="none" stroke="black" d="M433.59,-155.52C454.02,-152.72 474.63,-149.9 493.19,-147.36"/>
<polygon fill="black" stroke="black" points="493.84,-150.8 503.28,-145.98 492.89,-143.87 493.84,-150.8"/>
</g>
<!-- 3 -->
<g id="node4" class="node">
<title>3</title>
<ellipse fill="#e0e0e0" stroke="black" cx="62.93" cy="-35.87" rx="62.87" ry="26.74"/>
<text text-anchor="middle" x="62.93" y="-39.67" font-family="Times,serif" font-size="14.00">CONST 0</text>
<text text-anchor="middle" x="62.93" y="-24.67" font-family="Times,serif" font-size="14.00">dtypes.int</text>
</g>
<!-- 5 -->
<g id="node6" class="node">
<title>5</title>
<ellipse fill="#f0ffe0" stroke="black" cx="779.75" cy="-63.87" rx="100.32" ry="26.74"/>
<text text-anchor="middle" x="779.75" y="-67.67" font-family="Times,serif" font-size="14.00">DEFINE_ACC (0,)</text>
<text text-anchor="middle" x="779.75" y="-52.67" font-family="Times,serif" font-size="14.00">dtypes.int</text>
</g>
<!-- 3&#45;&gt;5 -->
<g id="edge4" class="edge">
<title>3&#45;&gt;5</title>
<path fill="none" stroke="black" d="M125.81,-38.3C247.23,-43.05 518.11,-53.66 670.06,-59.62"/>
<polygon fill="black" stroke="black" points="670.21,-63.12 680.34,-60.02 670.48,-56.13 670.21,-63.12"/>
</g>
<!-- 6 -->
<g id="node7" class="node">
<title>6</title>
<ellipse fill="#c8a0e0" stroke="black" cx="313.19" cy="-99.87" rx="96.75" ry="26.74"/>
<text text-anchor="middle" x="313.19" y="-103.67" font-family="Times,serif" font-size="14.00">RANGE (0, True)</text>
<text text-anchor="middle" x="313.19" y="-88.67" font-family="Times,serif" font-size="14.00">dtypes.int</text>
</g>
<!-- 3&#45;&gt;6 -->
<g id="edge5" class="edge">
<title>3&#45;&gt;6</title>
<path fill="none" stroke="black" d="M117.19,-49.6C150.54,-58.2 194.15,-69.44 231.68,-79.12"/>
<polygon fill="black" stroke="black" points="231.02,-82.56 241.58,-81.67 232.77,-75.78 231.02,-82.56"/>
</g>
<!-- 3&#45;&gt;13 -->
<g id="edge6" class="edge">
<title>3&#45;&gt;13</title>
<path fill="none" stroke="black" d="M124.49,-30.07C218.24,-21.61 404.23,-6.87 562.44,-6.87 562.44,-6.87 562.44,-6.87 1049.39,-6.87 1247.74,-6.87 1301.95,17.74 1495.22,-26.87 1508.4,-29.92 1522.11,-34.98 1534.5,-40.37"/>
<polygon fill="black" stroke="black" points="1533.14,-43.59 1543.69,-44.52 1536.02,-37.21 1533.14,-43.59"/>
</g>
<!-- 4 -->
<g id="node5" class="node">
<title>4</title>
<ellipse fill="#e0e0e0" stroke="black" cx="62.93" cy="-107.87" rx="62.87" ry="26.74"/>
<text text-anchor="middle" x="62.93" y="-111.67" font-family="Times,serif" font-size="14.00">CONST 2</text>
<text text-anchor="middle" x="62.93" y="-96.67" font-family="Times,serif" font-size="14.00">dtypes.int</text>
</g>
<!-- 4&#45;&gt;6 -->
<g id="edge7" class="edge">
<title>4&#45;&gt;6</title>
<path fill="none" stroke="black" d="M125.94,-105.88C150.37,-105.09 179.12,-104.16 206.63,-103.27"/>
<polygon fill="black" stroke="black" points="206.82,-106.77 216.7,-102.95 206.59,-99.77 206.82,-106.77"/>
</g>
<!-- 10 -->
<g id="node11" class="node">
<title>10</title>
<ellipse fill="#ffffc0" stroke="black" cx="1048.39" cy="-117.87" rx="115.02" ry="26.74"/>
<text text-anchor="middle" x="1048.39" y="-121.67" font-family="Times,serif" font-size="14.00">ALU BinaryOps.ADD</text>
<text text-anchor="middle" x="1048.39" y="-106.67" font-family="Times,serif" font-size="14.00">dtypes.int</text>
</g>
<!-- 5&#45;&gt;10 -->
<g id="edge8" class="edge">
<title>5&#45;&gt;10</title>
<path fill="none" stroke="black" d="M860.39,-80C888.79,-85.75 921.09,-92.3 950.77,-98.31"/>
<polygon fill="black" stroke="black" points="950.22,-101.77 960.72,-100.32 951.61,-94.91 950.22,-101.77"/>
</g>
<!-- 11 -->
<g id="node12" class="node">
<title>11</title>
<ellipse fill="#e0ffc0" stroke="black" cx="1347.43" cy="-62.87" rx="62.87" ry="26.74"/>
<text text-anchor="middle" x="1347.43" y="-66.67" font-family="Times,serif" font-size="14.00">PHI</text>
<text text-anchor="middle" x="1347.43" y="-51.67" font-family="Times,serif" font-size="14.00">dtypes.int</text>
</g>
<!-- 5&#45;&gt;11 -->
<g id="edge9" class="edge">
<title>5&#45;&gt;11</title>
<path fill="none" stroke="black" d="M880.26,-63.7C993.05,-63.5 1174.19,-63.18 1274.22,-63"/>
<polygon fill="black" stroke="black" points="1274.24,-66.5 1284.23,-62.98 1274.23,-59.5 1274.24,-66.5"/>
</g>
<!-- 6&#45;&gt;5 -->
<g id="edge10" class="edge">
<title>6&#45;&gt;5</title>
<path fill="none" stroke="black" d="M406.8,-92.7C483.59,-86.75 592.77,-78.29 672.98,-72.07"/>
<polygon fill="black" stroke="black" points="673.41,-75.55 683.11,-71.28 672.87,-68.57 673.41,-75.55"/>
</g>
<!-- 6&#45;&gt;7 -->
<g id="edge11" class="edge">
<title>6&#45;&gt;7</title>
<path fill="none" stroke="black" d="M400.53,-111.62C422.36,-116.94 445.1,-124.67 464.51,-135.87 484.65,-147.51 482.26,-159.44 500.51,-173.87 504.83,-177.3 509.52,-180.62 514.32,-183.76"/>
<polygon fill="black" stroke="black" points="512.68,-186.87 523,-189.23 516.4,-180.94 512.68,-186.87"/>
</g>
<!-- 6&#45;&gt;8 -->
<g id="edge12" class="edge">
<title>6&#45;&gt;8</title>
<path fill="none" stroke="black" d="M398.58,-112.79C429.51,-117.53 464.12,-122.82 493.54,-127.33"/>
<polygon fill="black" stroke="black" points="493.3,-130.83 503.71,-128.88 494.36,-123.91 493.3,-130.83"/>
</g>
<!-- 9 -->
<g id="node10" class="node">
<title>9</title>
<ellipse fill="#ffffc0" stroke="black" cx="779.75" cy="-137.87" rx="117.26" ry="26.74"/>
<text text-anchor="middle" x="779.75" y="-141.67" font-family="Times,serif" font-size="14.00">ALU BinaryOps.MUL</text>
<text text-anchor="middle" x="779.75" y="-126.67" font-family="Times,serif" font-size="14.00">dtypes.int</text>
</g>
<!-- 7&#45;&gt;9 -->
<g id="edge13" class="edge">
<title>7&#45;&gt;9</title>
<path fill="none" stroke="black" d="M613.34,-193.45C639.87,-184.53 673.25,-173.32 703.06,-163.3"/>
<polygon fill="black" stroke="black" points="704.23,-166.6 712.6,-160.1 702,-159.96 704.23,-166.6"/>
</g>
<!-- 8&#45;&gt;9 -->
<g id="edge14" class="edge">
<title>8&#45;&gt;9</title>
<path fill="none" stroke="black" d="M626.43,-137.87C634.51,-137.87 643.02,-137.87 651.7,-137.87"/>
<polygon fill="black" stroke="black" points="651.97,-141.37 661.97,-137.87 651.97,-134.37 651.97,-141.37"/>
</g>
<!-- 9&#45;&gt;10 -->
<g id="edge15" class="edge">
<title>9&#45;&gt;10</title>
<path fill="none" stroke="black" d="M891.51,-129.57C903.59,-128.66 915.91,-127.73 928.08,-126.82"/>
<polygon fill="black" stroke="black" points="928.55,-130.3 938.26,-126.06 928.02,-123.32 928.55,-130.3"/>
</g>
<!-- 10&#45;&gt;11 -->
<g id="edge16" class="edge">
<title>10&#45;&gt;11</title>
<path fill="none" stroke="black" d="M1139.32,-101.22C1184.28,-92.9 1237.77,-82.99 1279.12,-75.34"/>
<polygon fill="black" stroke="black" points="1279.9,-78.75 1289.1,-73.49 1278.63,-71.87 1279.9,-78.75"/>
</g>
<!-- 11&#45;&gt;13 -->
<g id="edge17" class="edge">
<title>11&#45;&gt;13</title>
<path fill="none" stroke="black" d="M1410.64,-62.87C1444.98,-62.87 1487.34,-62.87 1520.89,-62.87"/>
<polygon fill="black" stroke="black" points="1521,-66.37 1531,-62.87 1521,-59.37 1521,-66.37"/>
</g>
</g>
</svg>
