<?xml version="1.0" encoding="UTF-8" standalone="no"?>
<!DOCTYPE svg PUBLIC "-//W3C//DTD SVG 1.1//EN"
 "http://www.w3.org/Graphics/SVG/1.1/DTD/svg11.dtd">
<!-- Generated by graphviz version 2.43.0 (0)
 -->
<!-- Title: %3 Pages: 1 -->
<svg width="1646pt" height="362pt"
 viewBox="0.00 0.00 1646.05 361.74" xmlns="http://www.w3.org/2000/svg" xmlns:xlink="http://www.w3.org/1999/xlink">
<g id="graph0" class="graph" transform="scale(1 1) rotate(0) translate(4 357.74)">
<title>%3</title>
<polygon fill="white" stroke="transparent" points="-4,4 -4,-357.74 1642.05,-357.74 1642.05,4 -4,4"/>
<!-- 0 -->
<g id="node1" class="node">
<title>0</title>
<ellipse fill="#ffe0b0" stroke="black" cx="1358.1" cy="-326.87" rx="147.57" ry="26.74"/>
<text text-anchor="middle" x="1358.1" y="-330.67" font-family="Times,serif" font-size="14.00">DEFINE_GLOBAL (0, True)</text>
<text text-anchor="middle" x="1358.1" y="-315.67" font-family="Times,serif" font-size="14.00">PtrDType(dtypes.int)</text>
</g>
<!-- 15 -->
<g id="node16" class="node">
<title>15</title>
<ellipse fill="#c0ffc0" stroke="black" cx="1589.97" cy="-271.87" rx="48.17" ry="26.74"/>
<text text-anchor="middle" x="1589.97" y="-275.67" font-family="Times,serif" font-size="14.00">STORE</text>
<text text-anchor="middle" x="1589.97" y="-260.67" font-family="Times,serif" font-size="14.00">None</text>
</g>
<!-- 0&#45;&gt;15 -->
<g id="edge1" class="edge">
<title>0&#45;&gt;15</title>
<path fill="none" stroke="black" d="M1448.3,-305.53C1477.72,-298.49 1509.5,-290.88 1535.4,-284.69"/>
<polygon fill="black" stroke="black" points="1536.47,-288.03 1545.38,-282.3 1534.84,-281.22 1536.47,-288.03"/>
</g>
<!-- 1 -->
<g id="node2" class="node">
<title>1</title>
<ellipse fill="#ffe0b0" stroke="black" cx="1023" cy="-98.87" rx="151.14" ry="26.74"/>
<text text-anchor="middle" x="1023" y="-102.67" font-family="Times,serif" font-size="14.00">DEFINE_GLOBAL (1, False)</text>
<text text-anchor="middle" x="1023" y="-87.67" font-family="Times,serif" font-size="14.00">PtrDType(dtypes.int)</text>
</g>
<!-- 14 -->
<g id="node15" class="node">
<title>14</title>
<ellipse fill="#ffc0c0" stroke="black" cx="1358.1" cy="-153.87" rx="62.87" ry="26.74"/>
<text text-anchor="middle" x="1358.1" y="-157.67" font-family="Times,serif" font-size="14.00">LOAD</text>
<text text-anchor="middle" x="1358.1" y="-142.67" font-family="Times,serif" font-size="14.00">dtypes.int</text>
</g>
<!-- 1&#45;&gt;14 -->
<g id="edge2" class="edge">
<title>1&#45;&gt;14</title>
<path fill="none" stroke="black" d="M1134.45,-117.11C1185.58,-125.55 1244.69,-135.31 1289.16,-142.65"/>
<polygon fill="black" stroke="black" points="1288.83,-146.15 1299.27,-144.32 1289.97,-139.24 1288.83,-146.15"/>
</g>
<!-- 2 -->
<g id="node3" class="node">
<title>2</title>
<ellipse fill="#e0e0e0" stroke="black" cx="1023" cy="-26.87" rx="62.87" ry="26.74"/>
<text text-anchor="middle" x="1023" y="-30.67" font-family="Times,serif" font-size="14.00">CONST 0</text>
<text text-anchor="middle" x="1023" y="-15.67" font-family="Times,serif" font-size="14.00">dtypes.int</text>
</g>
<!-- 2&#45;&gt;14 -->
<g id="edge3" class="edge">
<title>2&#45;&gt;14</title>
<path fill="none" stroke="black" d="M1081.28,-37.4C1109.71,-43.42 1144.3,-51.97 1174.32,-62.87 1222.69,-80.45 1274.99,-107.36 1311.2,-127.36"/>
<polygon fill="black" stroke="black" points="1309.61,-130.48 1320.05,-132.29 1313.02,-124.37 1309.61,-130.48"/>
</g>
<!-- 3 -->
<g id="node4" class="node">
<title>3</title>
<ellipse fill="#e0e0e0" stroke="black" cx="706.98" cy="-172.87" rx="62.87" ry="26.74"/>
<text text-anchor="middle" x="706.98" y="-176.67" font-family="Times,serif" font-size="14.00">CONST 2</text>
<text text-anchor="middle" x="706.98" y="-161.67" font-family="Times,serif" font-size="14.00">dtypes.int</text>
</g>
<!-- 10 -->
<g id="node11" class="node">
<title>10</title>
<ellipse fill="#ffffc0" stroke="black" cx="1023" cy="-208.87" rx="115.02" ry="26.74"/>
<text text-anchor="middle" x="1023" y="-212.67" font-family="Times,serif" font-size="14.00">ALU BinaryOps.ADD</text>
<text text-anchor="middle" x="1023" y="-197.67" font-family="Times,serif" font-size="14.00">dtypes.int</text>
</g>
<!-- 3&#45;&gt;10 -->
<g id="edge4" class="edge">
<title>3&#45;&gt;10</title>
<path fill="none" stroke="black" d="M768.16,-179.77C807.97,-184.33 861.43,-190.46 909.01,-195.92"/>
<polygon fill="black" stroke="black" points="908.73,-199.41 919.07,-197.07 909.53,-192.45 908.73,-199.41"/>
</g>
<!-- 4 -->
<g id="node5" class="node">
<title>4</title>
<ellipse fill="#e0e0e0" stroke="black" cx="126.57" cy="-131.87" rx="62.87" ry="26.74"/>
<text text-anchor="middle" x="126.57" y="-135.67" font-family="Times,serif" font-size="14.00">CONST 4</text>
<text text-anchor="middle" x="126.57" y="-120.67" font-family="Times,serif" font-size="14.00">dtypes.int</text>
</g>
<!-- 8 -->
<g id="node9" class="node">
<title>8</title>
<ellipse fill="#ffffc0" stroke="black" cx="415.72" cy="-172.87" rx="117.26" ry="26.74"/>
<text text-anchor="middle" x="415.72" y="-176.67" font-family="Times,serif" font-size="14.00">ALU BinaryOps.MUL</text>
<text text-anchor="middle" x="415.72" y="-161.67" font-family="Times,serif" font-size="14.00">dtypes.int</text>
</g>
<!-- 4&#45;&gt;8 -->
<g id="edge5" class="edge">
<title>4&#45;&gt;8</title>
<path fill="none" stroke="black" d="M186.37,-140.27C220.71,-145.17 265.11,-151.51 305.63,-157.29"/>
<polygon fill="black" stroke="black" points="305.17,-160.76 315.56,-158.71 306.16,-153.83 305.17,-160.76"/>
</g>
<!-- 13 -->
<g id="node14" class="node">
<title>13</title>
<ellipse fill="#ffffc0" stroke="black" cx="706.98" cy="-100.87" rx="128.89" ry="26.74"/>
<text text-anchor="middle" x="706.98" y="-104.67" font-family="Times,serif" font-size="14.00">ALU BinaryOps.CMPLT</text>
<text text-anchor="middle" x="706.98" y="-89.67" font-family="Times,serif" font-size="14.00">dtypes.bool</text>
</g>
<!-- 4&#45;&gt;13 -->
<g id="edge6" class="edge">
<title>4&#45;&gt;13</title>
<path fill="none" stroke="black" d="M189.2,-128.57C279.87,-123.71 451.49,-114.51 572.01,-108.05"/>
<polygon fill="black" stroke="black" points="572.25,-111.54 582.05,-107.51 571.88,-104.55 572.25,-111.54"/>
</g>
<!-- 5 -->
<g id="node6" class="node">
<title>5</title>
<ellipse fill="#e0e0e0" stroke="black" cx="126.57" cy="-316.87" rx="62.87" ry="26.74"/>
<text text-anchor="middle" x="126.57" y="-320.67" font-family="Times,serif" font-size="14.00">CONST 7</text>
<text text-anchor="middle" x="126.57" y="-305.67" font-family="Times,serif" font-size="14.00">dtypes.int</text>
</g>
<!-- 11 -->
<g id="node12" class="node">
<title>11</title>
<ellipse fill="#ffffc0" stroke="black" cx="415.72" cy="-316.87" rx="117.26" ry="26.74"/>
<text text-anchor="middle" x="415.72" y="-320.67" font-family="Times,serif" font-size="14.00">ALU BinaryOps.MUL</text>
<text text-anchor="middle" x="415.72" y="-305.67" font-family="Times,serif" font-size="14.00">dtypes.int</text>
</g>
<!-- 5&#45;&gt;11 -->
<g id="edge7" class="edge">
<title>5&#45;&gt;11</title>
<path fill="none" stroke="black" d="M189.52,-316.87C218.41,-316.87 253.9,-316.87 288.08,-316.87"/>
<polygon fill="black" stroke="black" points="288.16,-320.37 298.16,-316.87 288.16,-313.37 288.16,-320.37"/>
</g>
<!-- 6 -->
<g id="node7" class="node">
<title>6</title>
<ellipse fill="#c0c0ff" stroke="black" cx="126.57" cy="-230.87" rx="126.64" ry="26.74"/>
<text text-anchor="middle" x="126.57" y="-234.67" font-family="Times,serif" font-size="14.00">SPECIAL (0, &#39;gidx0&#39;, 3)</text>
<text text-anchor="middle" x="126.57" y="-219.67" font-family="Times,serif" font-size="14.00">dtypes.int</text>
</g>
<!-- 6&#45;&gt;8 -->
<g id="edge8" class="edge">
<title>6&#45;&gt;8</title>
<path fill="none" stroke="black" d="M218.82,-212.44C250.09,-206.12 285.19,-199.03 316.95,-192.62"/>
<polygon fill="black" stroke="black" points="318.03,-195.97 327.14,-190.56 316.64,-189.11 318.03,-195.97"/>
</g>
<!-- 6&#45;&gt;11 -->
<g id="edge9" class="edge">
<title>6&#45;&gt;11</title>
<path fill="none" stroke="black" d="M198.26,-253.1C226.49,-261.88 259.32,-271.98 289.14,-280.87 302.83,-284.95 317.38,-289.2 331.54,-293.29"/>
<polygon fill="black" stroke="black" points="330.69,-296.69 341.27,-296.09 332.63,-289.96 330.69,-296.69"/>
</g>
<!-- 7 -->
<g id="node8" class="node">
<title>7</title>
<ellipse fill="#c0c0ff" stroke="black" cx="415.72" cy="-244.87" rx="126.64" ry="26.74"/>
<text text-anchor="middle" x="415.72" y="-248.67" font-family="Times,serif" font-size="14.00">SPECIAL (1, &#39;gidx1&#39;, 7)</text>
<text text-anchor="middle" x="415.72" y="-233.67" font-family="Times,serif" font-size="14.00">dtypes.int</text>
</g>
<!-- 9 -->
<g id="node10" class="node">
<title>9</title>
<ellipse fill="#ffffc0" stroke="black" cx="706.98" cy="-244.87" rx="115.02" ry="26.74"/>
<text text-anchor="middle" x="706.98" y="-248.67" font-family="Times,serif" font-size="14.00">ALU BinaryOps.ADD</text>
<text text-anchor="middle" x="706.98" y="-233.67" font-family="Times,serif" font-size="14.00">dtypes.int</text>
</g>
<!-- 7&#45;&gt;9 -->
<g id="edge10" class="edge">
<title>7&#45;&gt;9</title>
<path fill="none" stroke="black" d="M542.33,-244.87C555.2,-244.87 568.28,-244.87 581.15,-244.87"/>
<polygon fill="black" stroke="black" points="581.41,-248.37 591.41,-244.87 581.41,-241.37 581.41,-248.37"/>
</g>
<!-- 12 -->
<g id="node13" class="node">
<title>12</title>
<ellipse fill="#ffffc0" stroke="black" cx="706.98" cy="-316.87" rx="115.02" ry="26.74"/>
<text text-anchor="middle" x="706.98" y="-320.67" font-family="Times,serif" font-size="14.00">ALU BinaryOps.ADD</text>
<text text-anchor="middle" x="706.98" y="-305.67" font-family="Times,serif" font-size="14.00">dtypes.int</text>
</g>
<!-- 7&#45;&gt;12 -->
<g id="edge11" class="edge">
<title>7&#45;&gt;12</title>
<path fill="none" stroke="black" d="M498.45,-265.21C535.56,-274.45 579.54,-285.4 617.44,-294.83"/>
<polygon fill="black" stroke="black" points="616.89,-298.3 627.44,-297.32 618.58,-291.51 616.89,-298.3"/>
</g>
<!-- 7&#45;&gt;13 -->
<g id="edge12" class="edge">
<title>7&#45;&gt;13</title>
<path fill="none" stroke="black" d="M511.25,-227.21C522.45,-222.48 533.13,-216.48 542.29,-208.87 569.81,-186.01 550.72,-159.67 578.29,-136.87 584.99,-131.32 592.5,-126.63 600.43,-122.66"/>
<polygon fill="black" stroke="black" points="601.91,-125.83 609.54,-118.48 598.99,-119.47 601.91,-125.83"/>
</g>
<!-- 8&#45;&gt;9 -->
<g id="edge13" class="edge">
<title>8&#45;&gt;9</title>
<path fill="none" stroke="black" d="M495.76,-192.54C533.54,-201.95 578.9,-213.24 617.79,-222.92"/>
<polygon fill="black" stroke="black" points="616.99,-226.33 627.54,-225.34 618.68,-219.53 616.99,-226.33"/>
</g>
<!-- 9&#45;&gt;10 -->
<g id="edge14" class="edge">
<title>9&#45;&gt;10</title>
<path fill="none" stroke="black" d="M810.8,-233.08C842.19,-229.48 876.88,-225.51 908.91,-221.83"/>
<polygon fill="black" stroke="black" points="909.68,-225.27 919.21,-220.65 908.88,-218.32 909.68,-225.27"/>
</g>
<!-- 10&#45;&gt;14 -->
<g id="edge15" class="edge">
<title>10&#45;&gt;14</title>
<path fill="none" stroke="black" d="M1117.67,-193.4C1172.22,-184.4 1239.76,-173.24 1289.18,-165.08"/>
<polygon fill="black" stroke="black" points="1289.84,-168.52 1299.13,-163.44 1288.7,-161.62 1289.84,-168.52"/>
</g>
<!-- 11&#45;&gt;12 -->
<g id="edge16" class="edge">
<title>11&#45;&gt;12</title>
<path fill="none" stroke="black" d="M533.12,-316.87C548.96,-316.87 565.27,-316.87 581.25,-316.87"/>
<polygon fill="black" stroke="black" points="581.7,-320.37 591.7,-316.87 581.7,-313.37 581.7,-320.37"/>
</g>
<!-- 12&#45;&gt;15 -->
<g id="edge17" class="edge">
<title>12&#45;&gt;15</title>
<path fill="none" stroke="black" d="M819.71,-311.04C921.5,-305.73 1076.01,-297.72 1210.32,-290.87 1324.42,-285.05 1457.88,-278.39 1531.99,-274.7"/>
<polygon fill="black" stroke="black" points="1532.23,-278.19 1542.04,-274.2 1531.88,-271.2 1532.23,-278.19"/>
</g>
<!-- 13&#45;&gt;14 -->
<g id="edge18" class="edge">
<title>13&#45;&gt;14</title>
<path fill="none" stroke="black" d="M792.08,-121.12C817.51,-126.49 845.6,-131.67 871.68,-134.87 1017.67,-152.76 1190.03,-155.1 1285.08,-154.76"/>
<polygon fill="black" stroke="black" points="1285.17,-158.26 1295.15,-154.72 1285.14,-151.26 1285.17,-158.26"/>
</g>
<!-- 14&#45;&gt;15 -->
<g id="edge19" class="edge">
<title>14&#45;&gt;15</title>
<path fill="none" stroke="black" d="M1399.14,-174.42C1439.89,-195.34 1502.87,-227.67 1544.99,-249.29"/>
<polygon fill="black" stroke="black" points="1543.41,-252.42 1553.9,-253.87 1546.6,-246.19 1543.41,-252.42"/>
</g>
</g>
</svg>
