<?xml version="1.0" encoding="UTF-8" standalone="no"?>
<!DOCTYPE svg PUBLIC "-//W3C//DTD SVG 1.1//EN"
 "http://www.w3.org/Graphics/SVG/1.1/DTD/svg11.dtd">
<!-- Generated by graphviz version 2.43.0 (0)
 -->
<!-- Title: %3 Pages: 1 -->
<svg width="202pt" height="545pt"
 viewBox="0.00 0.00 201.75 544.93" xmlns="http://www.w3.org/2000/svg" xmlns:xlink="http://www.w3.org/1999/xlink">
<g id="graph0" class="graph" transform="scale(1 1) rotate(0) translate(4 540.93)">
<title>%3</title>
<polygon fill="white" stroke="transparent" points="-4,4 -4,-540.93 197.75,-540.93 197.75,4 -4,4"/>
<!-- 1 -->
<g id="node1" class="node">
<title>1</title>
<ellipse fill="#80ff80" fill-opacity="0.501961" stroke="black" stroke-dasharray="5,2" cx="96.87" cy="-335.46" rx="35.21" ry="26.74"/>
<text text-anchor="middle" x="96.87" y="-339.26" font-family="Times,serif" font-size="14.00">(10,)</text>
<text text-anchor="middle" x="96.87" y="-324.26" font-family="Times,serif" font-size="14.00">(1,)</text>
</g>
<!-- 0 -->
<g id="node3" class="node">
<title>0</title>
<ellipse fill="#c0c0c0" stroke="black" stroke-width="2" cx="96.87" cy="-203.3" rx="90.52" ry="69.09"/>
<text text-anchor="middle" x="96.87" y="-237.1" font-family="Times,serif" font-size="14.00">(10,)</text>
<text text-anchor="middle" x="96.87" y="-222.1" font-family="Times,serif" font-size="14.00">int</text>
<text text-anchor="middle" x="96.87" y="-207.1" font-family="Times,serif" font-size="14.00">BinaryOps.ADD</text>
<text text-anchor="middle" x="96.87" y="-192.1" font-family="Times,serif" font-size="14.00">CONST1 &#45;1</text>
<text text-anchor="middle" x="96.87" y="-177.1" font-family="Times,serif" font-size="14.00">arange</text>
<text text-anchor="middle" x="96.87" y="-162.1" font-family="Times,serif" font-size="14.00">K:1</text>
</g>
<!-- 1&#45;&gt;0 -->
<g id="edge1" class="edge">
<title>1&#45;&gt;0</title>
<path fill="none" stroke="#a0a0a0" d="M96.87,-308.43C96.87,-300.75 96.87,-291.92 96.87,-282.71"/>
<polygon fill="#a0a0a0" stroke="#a0a0a0" points="100.37,-282.61 96.87,-272.61 93.37,-282.61 100.37,-282.61"/>
</g>
<!-- 2 -->
<g id="node2" class="node">
<title>2</title>
<ellipse fill="#ffa0a0" fill-opacity="0.501961" stroke="black" stroke-dasharray="5,2" cx="96.87" cy="-467.63" rx="96.75" ry="69.09"/>
<text text-anchor="middle" x="96.87" y="-501.43" font-family="Times,serif" font-size="14.00">{(10, 10)}</text>
<text text-anchor="middle" x="96.87" y="-486.43" font-family="Times,serif" font-size="14.00">(10, 1)</text>
<text text-anchor="middle" x="96.87" y="-471.43" font-family="Times,serif" font-size="14.00">int</text>
<text text-anchor="middle" x="96.87" y="-456.43" font-family="Times,serif" font-size="14.00">ReduceOps.SUM</text>
<text text-anchor="middle" x="96.87" y="-441.43" font-family="Times,serif" font-size="14.00">CONST0 1</text>
<text text-anchor="middle" x="96.87" y="-426.43" font-family="Times,serif" font-size="14.00">arange</text>
</g>
<!-- 2&#45;&gt;1 -->
<g id="edge2" class="edge">
<title>2&#45;&gt;1</title>
<path fill="none" stroke="#000000" stroke-opacity="0.376471" d="M96.87,-398.12C96.87,-389.26 96.87,-380.48 96.87,-372.46"/>
<polygon fill="#000000" fill-opacity="0.376471" stroke="#000000" stroke-opacity="0.376471" points="100.37,-372.38 96.87,-362.38 93.37,-372.38 100.37,-372.38"/>
</g>
<!-- 5 -->
<g id="node4" class="node">
<title>5</title>
<polygon fill="#ffffa0" stroke="black" stroke-width="2" points="159.87,-98 33.87,-98 33.87,0 159.87,0 159.87,-98"/>
<text text-anchor="middle" x="96.87" y="-82.8" font-family="Times,serif" font-size="14.00">(10,)</text>
<text text-anchor="middle" x="96.87" y="-67.8" font-family="Times,serif" font-size="14.00">int</text>
<text text-anchor="middle" x="96.87" y="-52.8" font-family="Times,serif" font-size="14.00">MetaOps.COPY</text>
<text text-anchor="middle" x="96.87" y="-37.8" font-family="Times,serif" font-size="14.00">CLANG</text>
<text text-anchor="middle" x="96.87" y="-22.8" font-family="Times,serif" font-size="14.00">numpy</text>
<text text-anchor="middle" x="96.87" y="-7.8" font-family="Times,serif" font-size="14.00">K:2</text>
</g>
<!-- 0&#45;&gt;5 -->
<g id="edge3" class="edge">
<title>0&#45;&gt;5</title>
<path fill="none" stroke="#a0a0a0" d="M96.87,-133.72C96.87,-125.19 96.87,-116.53 96.87,-108.18"/>
<polygon fill="#a0a0a0" stroke="#a0a0a0" points="100.37,-108.17 96.87,-98.17 93.37,-108.17 100.37,-108.17"/>
</g>
</g>
</svg>
