<?xml version="1.0" encoding="UTF-8" standalone="no"?>
<!DOCTYPE svg PUBLIC "-//W3C//DTD SVG 1.1//EN"
 "http://www.w3.org/Graphics/SVG/1.1/DTD/svg11.dtd">
<!-- Generated by graphviz version 2.43.0 (0)
 -->
<!-- Title: %3 Pages: 1 -->
<svg width="1896pt" height="263pt"
 viewBox="0.00 0.00 1895.60 263.11" xmlns="http://www.w3.org/2000/svg" xmlns:xlink="http://www.w3.org/1999/xlink">
<g id="graph0" class="graph" transform="scale(1 1) rotate(0) translate(4 259.11)">
<title>%3</title>
<polygon fill="white" stroke="transparent" points="-4,4 -4,-259.11 1891.6,-259.11 1891.6,4 -4,4"/>
<!-- 0 -->
<g id="node1" class="node">
<title>0</title>
<ellipse fill="#ffe0b0" stroke="black" cx="1607.65" cy="-181.24" rx="147.57" ry="26.74"/>
<text text-anchor="middle" x="1607.65" y="-185.04" font-family="Times,serif" font-size="14.00">DEFINE_GLOBAL (0, True)</text>
<text text-anchor="middle" x="1607.65" y="-170.04" font-family="Times,serif" font-size="14.00">PtrDType(dtypes.int)</text>
</g>
<!-- 15 -->
<g id="node16" class="node">
<title>15</title>
<ellipse fill="#c0ffc0" stroke="black" cx="1839.52" cy="-109.24" rx="48.17" ry="26.74"/>
<text text-anchor="middle" x="1839.52" y="-113.04" font-family="Times,serif" font-size="14.00">STORE</text>
<text text-anchor="middle" x="1839.52" y="-98.04" font-family="Times,serif" font-size="14.00">None</text>
</g>
<!-- 0&#45;&gt;15 -->
<g id="edge1" class="edge">
<title>0&#45;&gt;15</title>
<path fill="none" stroke="black" d="M1702.9,-160.62C1720.51,-156.06 1738.65,-150.89 1755.43,-145.24 1767.78,-141.08 1780.83,-135.85 1792.85,-130.66"/>
<polygon fill="black" stroke="black" points="1794.48,-133.77 1802.23,-126.54 1791.66,-127.36 1794.48,-133.77"/>
</g>
<!-- 1 -->
<g id="node2" class="node">
<title>1</title>
<ellipse fill="#ffe0b0" stroke="black" cx="1272.54" cy="-181.24" rx="151.14" ry="26.74"/>
<text text-anchor="middle" x="1272.54" y="-185.04" font-family="Times,serif" font-size="14.00">DEFINE_GLOBAL (1, False)</text>
<text text-anchor="middle" x="1272.54" y="-170.04" font-family="Times,serif" font-size="14.00">PtrDType(dtypes.int)</text>
</g>
<!-- 14 -->
<g id="node15" class="node">
<title>14</title>
<ellipse fill="#ffc0c0" stroke="black" cx="1607.65" cy="-109.24" rx="62.87" ry="26.74"/>
<text text-anchor="middle" x="1607.65" y="-113.04" font-family="Times,serif" font-size="14.00">LOAD</text>
<text text-anchor="middle" x="1607.65" y="-98.04" font-family="Times,serif" font-size="14.00">dtypes.int</text>
</g>
<!-- 1&#45;&gt;14 -->
<g id="edge2" class="edge">
<title>1&#45;&gt;14</title>
<path fill="none" stroke="black" d="M1369.44,-160.51C1424.47,-148.62 1492.12,-133.99 1541.07,-123.41"/>
<polygon fill="black" stroke="black" points="1541.88,-126.82 1550.91,-121.28 1540.4,-119.98 1541.88,-126.82"/>
</g>
<!-- 2 -->
<g id="node3" class="node">
<title>2</title>
<ellipse fill="#e0e0e0" stroke="black" cx="126.57" cy="-200.24" rx="62.87" ry="26.74"/>
<text text-anchor="middle" x="126.57" y="-204.04" font-family="Times,serif" font-size="14.00">CONST 2</text>
<text text-anchor="middle" x="126.57" y="-189.04" font-family="Times,serif" font-size="14.00">dtypes.int</text>
</g>
<!-- 6 -->
<g id="node7" class="node">
<title>6</title>
<ellipse fill="#ffffc0" stroke="black" cx="407.23" cy="-56.24" rx="117.26" ry="26.74"/>
<text text-anchor="middle" x="407.23" y="-60.04" font-family="Times,serif" font-size="14.00">ALU BinaryOps.MUL</text>
<text text-anchor="middle" x="407.23" y="-45.04" font-family="Times,serif" font-size="14.00">dtypes.int</text>
</g>
<!-- 2&#45;&gt;6 -->
<g id="edge3" class="edge">
<title>2&#45;&gt;6</title>
<path fill="none" stroke="black" d="M187.66,-193.39C210.18,-188.33 234.74,-179.53 253.14,-164.24 280.66,-141.38 261.84,-115.36 289.14,-92.24 295.36,-86.97 302.34,-82.47 309.72,-78.63"/>
<polygon fill="black" stroke="black" points="311.71,-81.56 319.24,-74.11 308.71,-75.24 311.71,-81.56"/>
</g>
<!-- 9 -->
<g id="node10" class="node">
<title>9</title>
<ellipse fill="#ffffc0" stroke="black" cx="407.23" cy="-128.24" rx="114.6" ry="26.74"/>
<text text-anchor="middle" x="407.23" y="-132.04" font-family="Times,serif" font-size="14.00">ALU BinaryOps.IDIV</text>
<text text-anchor="middle" x="407.23" y="-117.04" font-family="Times,serif" font-size="14.00">dtypes.int</text>
</g>
<!-- 2&#45;&gt;9 -->
<g id="edge4" class="edge">
<title>2&#45;&gt;9</title>
<path fill="none" stroke="black" d="M180.97,-186.44C220.21,-176.3 274.36,-162.31 319.74,-150.59"/>
<polygon fill="black" stroke="black" points="320.77,-153.93 329.58,-148.04 319.02,-147.16 320.77,-153.93"/>
</g>
<!-- 10 -->
<g id="node11" class="node">
<title>10</title>
<ellipse fill="#ffffc0" stroke="black" cx="407.23" cy="-200.24" rx="118.17" ry="26.74"/>
<text text-anchor="middle" x="407.23" y="-204.04" font-family="Times,serif" font-size="14.00">ALU BinaryOps.MOD</text>
<text text-anchor="middle" x="407.23" y="-189.04" font-family="Times,serif" font-size="14.00">dtypes.int</text>
</g>
<!-- 2&#45;&gt;10 -->
<g id="edge5" class="edge">
<title>2&#45;&gt;10</title>
<path fill="none" stroke="black" d="M189.76,-200.24C216.18,-200.24 247.99,-200.24 279,-200.24"/>
<polygon fill="black" stroke="black" points="279.04,-203.74 289.04,-200.24 279.04,-196.74 279.04,-203.74"/>
</g>
<!-- 11 -->
<g id="node12" class="node">
<title>11</title>
<ellipse fill="#ffffc0" stroke="black" cx="687.89" cy="-228.24" rx="117.26" ry="26.74"/>
<text text-anchor="middle" x="687.89" y="-232.04" font-family="Times,serif" font-size="14.00">ALU BinaryOps.MUL</text>
<text text-anchor="middle" x="687.89" y="-217.04" font-family="Times,serif" font-size="14.00">dtypes.int</text>
</g>
<!-- 2&#45;&gt;11 -->
<g id="edge6" class="edge">
<title>2&#45;&gt;11</title>
<path fill="none" stroke="black" d="M179.48,-214.85C210.92,-222.93 252.01,-232.15 289.14,-236.24 382.47,-246.51 488.83,-243.62 568.07,-238.64"/>
<polygon fill="black" stroke="black" points="568.33,-242.13 578.09,-237.99 567.88,-235.15 568.33,-242.13"/>
</g>
<!-- 3 -->
<g id="node4" class="node">
<title>3</title>
<ellipse fill="#e0e0e0" stroke="black" cx="687.89" cy="-118.24" rx="62.87" ry="26.74"/>
<text text-anchor="middle" x="687.89" y="-122.04" font-family="Times,serif" font-size="14.00">CONST 4</text>
<text text-anchor="middle" x="687.89" y="-107.04" font-family="Times,serif" font-size="14.00">dtypes.int</text>
</g>
<!-- 8 -->
<g id="node9" class="node">
<title>8</title>
<ellipse fill="#ffffc0" stroke="black" cx="967.84" cy="-109.24" rx="117.26" ry="26.74"/>
<text text-anchor="middle" x="967.84" y="-113.04" font-family="Times,serif" font-size="14.00">ALU BinaryOps.MUL</text>
<text text-anchor="middle" x="967.84" y="-98.04" font-family="Times,serif" font-size="14.00">dtypes.int</text>
</g>
<!-- 3&#45;&gt;8 -->
<g id="edge7" class="edge">
<title>3&#45;&gt;8</title>
<path fill="none" stroke="black" d="M750.92,-116.23C777.63,-115.36 809.88,-114.32 841.21,-113.31"/>
<polygon fill="black" stroke="black" points="841.46,-116.8 851.34,-112.98 841.23,-109.8 841.46,-116.8"/>
</g>
<!-- 4 -->
<g id="node5" class="node">
<title>4</title>
<ellipse fill="#c0c0ff" stroke="black" cx="126.57" cy="-128.24" rx="126.64" ry="26.74"/>
<text text-anchor="middle" x="126.57" y="-132.04" font-family="Times,serif" font-size="14.00">SPECIAL (0, &#39;gidx0&#39;, 4)</text>
<text text-anchor="middle" x="126.57" y="-117.04" font-family="Times,serif" font-size="14.00">dtypes.int</text>
</g>
<!-- 4&#45;&gt;6 -->
<g id="edge8" class="edge">
<title>4&#45;&gt;6</title>
<path fill="none" stroke="black" d="M207.8,-107.51C242.48,-98.55 283.16,-88.04 318.63,-78.87"/>
<polygon fill="black" stroke="black" points="319.68,-82.21 328.49,-76.32 317.93,-75.44 319.68,-82.21"/>
</g>
<!-- 4&#45;&gt;9 -->
<g id="edge9" class="edge">
<title>4&#45;&gt;9</title>
<path fill="none" stroke="black" d="M253.45,-128.24C262.98,-128.24 272.6,-128.24 282.12,-128.24"/>
<polygon fill="black" stroke="black" points="282.41,-131.74 292.41,-128.24 282.41,-124.74 282.41,-131.74"/>
</g>
<!-- 4&#45;&gt;10 -->
<g id="edge10" class="edge">
<title>4&#45;&gt;10</title>
<path fill="none" stroke="black" d="M207.8,-148.97C242.48,-157.93 283.16,-168.44 318.63,-177.6"/>
<polygon fill="black" stroke="black" points="317.93,-181.04 328.49,-180.15 319.68,-174.26 317.93,-181.04"/>
</g>
<!-- 5 -->
<g id="node6" class="node">
<title>5</title>
<ellipse fill="#c0c0ff" stroke="black" cx="687.89" cy="-46.24" rx="126.64" ry="26.74"/>
<text text-anchor="middle" x="687.89" y="-50.04" font-family="Times,serif" font-size="14.00">SPECIAL (1, &#39;gidx1&#39;, 2)</text>
<text text-anchor="middle" x="687.89" y="-35.04" font-family="Times,serif" font-size="14.00">dtypes.int</text>
</g>
<!-- 7 -->
<g id="node8" class="node">
<title>7</title>
<ellipse fill="#ffffc0" stroke="black" cx="967.84" cy="-37.24" rx="115.02" ry="26.74"/>
<text text-anchor="middle" x="967.84" y="-41.04" font-family="Times,serif" font-size="14.00">ALU BinaryOps.ADD</text>
<text text-anchor="middle" x="967.84" y="-26.04" font-family="Times,serif" font-size="14.00">dtypes.int</text>
</g>
<!-- 5&#45;&gt;7 -->
<g id="edge11" class="edge">
<title>5&#45;&gt;7</title>
<path fill="none" stroke="black" d="M813.23,-42.21C823.31,-41.88 833.5,-41.56 843.57,-41.23"/>
<polygon fill="black" stroke="black" points="843.72,-44.73 853.6,-40.9 843.5,-37.73 843.72,-44.73"/>
</g>
<!-- 5&#45;&gt;8 -->
<g id="edge12" class="edge">
<title>5&#45;&gt;8</title>
<path fill="none" stroke="black" d="M775.31,-65.83C806.65,-72.93 842.17,-80.98 874.04,-88.2"/>
<polygon fill="black" stroke="black" points="873.28,-91.62 883.8,-90.42 874.82,-84.79 873.28,-91.62"/>
</g>
<!-- 6&#45;&gt;7 -->
<g id="edge13" class="edge">
<title>6&#45;&gt;7</title>
<path fill="none" stroke="black" d="M469.49,-33.36C497.13,-24.21 530.43,-14.78 561.32,-10.24 672.63,6.12 702.39,-0.38 814.46,-10.24 832.95,-11.86 852.56,-14.58 871.33,-17.67"/>
<polygon fill="black" stroke="black" points="870.92,-21.15 881.37,-19.38 872.09,-14.25 870.92,-21.15"/>
</g>
<!-- 7&#45;&gt;15 -->
<g id="edge14" class="edge">
<title>7&#45;&gt;15</title>
<path fill="none" stroke="black" d="M1079.01,-29.88C1232.7,-22.39 1519.19,-18.59 1755.43,-73.24 1768.61,-76.29 1782.32,-81.35 1794.72,-86.74"/>
<polygon fill="black" stroke="black" points="1793.35,-89.96 1803.9,-90.89 1796.23,-83.58 1793.35,-89.96"/>
</g>
<!-- 13 -->
<g id="node14" class="node">
<title>13</title>
<ellipse fill="#ffffc0" stroke="black" cx="1272.54" cy="-109.24" rx="115.02" ry="26.74"/>
<text text-anchor="middle" x="1272.54" y="-113.04" font-family="Times,serif" font-size="14.00">ALU BinaryOps.ADD</text>
<text text-anchor="middle" x="1272.54" y="-98.04" font-family="Times,serif" font-size="14.00">dtypes.int</text>
</g>
<!-- 8&#45;&gt;13 -->
<g id="edge15" class="edge">
<title>8&#45;&gt;13</title>
<path fill="none" stroke="black" d="M1085.44,-109.24C1105.53,-109.24 1126.48,-109.24 1146.78,-109.24"/>
<polygon fill="black" stroke="black" points="1147,-112.74 1157,-109.24 1147,-105.74 1147,-112.74"/>
</g>
<!-- 12 -->
<g id="node13" class="node">
<title>12</title>
<ellipse fill="#ffffc0" stroke="black" cx="967.84" cy="-181.24" rx="115.02" ry="26.74"/>
<text text-anchor="middle" x="967.84" y="-185.04" font-family="Times,serif" font-size="14.00">ALU BinaryOps.ADD</text>
<text text-anchor="middle" x="967.84" y="-170.04" font-family="Times,serif" font-size="14.00">dtypes.int</text>
</g>
<!-- 9&#45;&gt;12 -->
<g id="edge16" class="edge">
<title>9&#45;&gt;12</title>
<path fill="none" stroke="black" d="M497.46,-144.96C518.35,-148.44 540.57,-151.79 561.32,-154.24 655.73,-165.37 763.1,-172.26 843.63,-176.3"/>
<polygon fill="black" stroke="black" points="843.65,-179.8 853.81,-176.8 843.99,-172.81 843.65,-179.8"/>
</g>
<!-- 10&#45;&gt;11 -->
<g id="edge17" class="edge">
<title>10&#45;&gt;11</title>
<path fill="none" stroke="black" d="M515.57,-211.02C533.42,-212.82 552.01,-214.68 570.09,-216.5"/>
<polygon fill="black" stroke="black" points="569.77,-219.99 580.07,-217.5 570.47,-213.02 569.77,-219.99"/>
</g>
<!-- 11&#45;&gt;12 -->
<g id="edge18" class="edge">
<title>11&#45;&gt;12</title>
<path fill="none" stroke="black" d="M782.99,-212.33C808.97,-207.93 837.28,-203.14 863.74,-198.67"/>
<polygon fill="black" stroke="black" points="864.5,-202.09 873.78,-196.97 863.34,-195.19 864.5,-202.09"/>
</g>
<!-- 12&#45;&gt;13 -->
<g id="edge19" class="edge">
<title>12&#45;&gt;13</title>
<path fill="none" stroke="black" d="M1049.17,-162.13C1089.78,-152.47 1139.23,-140.71 1181.17,-130.73"/>
<polygon fill="black" stroke="black" points="1182.19,-134.09 1191.11,-128.37 1180.57,-127.28 1182.19,-134.09"/>
</g>
<!-- 13&#45;&gt;14 -->
<g id="edge20" class="edge">
<title>13&#45;&gt;14</title>
<path fill="none" stroke="black" d="M1388.18,-109.24C1436.61,-109.24 1491.56,-109.24 1534.23,-109.24"/>
<polygon fill="black" stroke="black" points="1534.24,-112.74 1544.24,-109.24 1534.24,-105.74 1534.24,-112.74"/>
</g>
<!-- 14&#45;&gt;15 -->
<g id="edge21" class="edge">
<title>14&#45;&gt;15</title>
<path fill="none" stroke="black" d="M1670.85,-109.24C1705.2,-109.24 1747.56,-109.24 1781.11,-109.24"/>
<polygon fill="black" stroke="black" points="1781.22,-112.74 1791.22,-109.24 1781.22,-105.74 1781.22,-112.74"/>
</g>
</g>
</svg>
