<?xml version="1.0" encoding="UTF-8" standalone="no"?>
<!DOCTYPE svg PUBLIC "-//W3C//DTD SVG 1.1//EN"
 "http://www.w3.org/Graphics/SVG/1.1/DTD/svg11.dtd">
<!-- Generated by graphviz version 2.43.0 (0)
 -->
<!-- Title: %3 Pages: 1 -->
<svg width="4317pt" height="1010pt"
 viewBox="0.00 0.00 4316.88 1009.74" xmlns="http://www.w3.org/2000/svg" xmlns:xlink="http://www.w3.org/1999/xlink">
<g id="graph0" class="graph" transform="scale(1 1) rotate(0) translate(4 1005.74)">
<title>%3</title>
<polygon fill="white" stroke="transparent" points="-4,4 -4,-1005.74 4312.88,-1005.74 4312.88,4 -4,4"/>
<!-- 0 -->
<g id="node1" class="node">
<title>0</title>
<ellipse fill="#ffe0b0" stroke="black" cx="4028.93" cy="-974.87" rx="147.57" ry="26.74"/>
<text text-anchor="middle" x="4028.93" y="-978.67" font-family="Times,serif" font-size="14.00">DEFINE_GLOBAL (0, True)</text>
<text text-anchor="middle" x="4028.93" y="-963.67" font-family="Times,serif" font-size="14.00">ptr.dtypes.int</text>
</g>
<!-- 49 -->
<g id="node50" class="node">
<title>49</title>
<ellipse fill="#c0ffc0" stroke="black" cx="4260.8" cy="-919.87" rx="48.17" ry="26.74"/>
<text text-anchor="middle" x="4260.8" y="-923.67" font-family="Times,serif" font-size="14.00">STORE</text>
<text text-anchor="middle" x="4260.8" y="-908.67" font-family="Times,serif" font-size="14.00">None</text>
</g>
<!-- 0&#45;&gt;49 -->
<g id="edge1" class="edge">
<title>0&#45;&gt;49</title>
<path fill="none" stroke="black" d="M4119.13,-953.53C4148.54,-946.49 4180.32,-938.88 4206.22,-932.69"/>
<polygon fill="black" stroke="black" points="4207.3,-936.03 4216.21,-930.3 4205.67,-929.22 4207.3,-936.03"/>
</g>
<!-- 1 -->
<g id="node2" class="node">
<title>1</title>
<ellipse fill="#e0e0e0" stroke="black" cx="675.16" cy="-686.87" rx="62.87" ry="26.74"/>
<text text-anchor="middle" x="675.16" y="-690.67" font-family="Times,serif" font-size="14.00">CONST &#45;8</text>
<text text-anchor="middle" x="675.16" y="-675.67" font-family="Times,serif" font-size="14.00">dtypes.int</text>
</g>
<!-- 19 -->
<g id="node20" class="node">
<title>19</title>
<ellipse fill="#ffffc0" stroke="black" cx="955.11" cy="-686.87" rx="128.89" ry="26.74"/>
<text text-anchor="middle" x="955.11" y="-690.67" font-family="Times,serif" font-size="14.00">ALU BinaryOps.CMPLT</text>
<text text-anchor="middle" x="955.11" y="-675.67" font-family="Times,serif" font-size="14.00">dtypes.bool</text>
</g>
<!-- 1&#45;&gt;19 -->
<g id="edge2" class="edge">
<title>1&#45;&gt;19</title>
<path fill="none" stroke="black" d="M738.19,-686.87C761.42,-686.87 788.84,-686.87 816.2,-686.87"/>
<polygon fill="black" stroke="black" points="816.26,-690.37 826.26,-686.87 816.26,-683.37 816.26,-690.37"/>
</g>
<!-- 2 -->
<g id="node3" class="node">
<title>2</title>
<ellipse fill="#e0e0e0" stroke="black" cx="675.16" cy="-614.87" rx="62.87" ry="26.74"/>
<text text-anchor="middle" x="675.16" y="-618.67" font-family="Times,serif" font-size="14.00">CONST &#45;7</text>
<text text-anchor="middle" x="675.16" y="-603.67" font-family="Times,serif" font-size="14.00">dtypes.int</text>
</g>
<!-- 21 -->
<g id="node22" class="node">
<title>21</title>
<ellipse fill="#ffffc0" stroke="black" cx="955.11" cy="-614.87" rx="128.89" ry="26.74"/>
<text text-anchor="middle" x="955.11" y="-618.67" font-family="Times,serif" font-size="14.00">ALU BinaryOps.CMPLT</text>
<text text-anchor="middle" x="955.11" y="-603.67" font-family="Times,serif" font-size="14.00">dtypes.bool</text>
</g>
<!-- 2&#45;&gt;21 -->
<g id="edge3" class="edge">
<title>2&#45;&gt;21</title>
<path fill="none" stroke="black" d="M738.19,-614.87C761.42,-614.87 788.84,-614.87 816.2,-614.87"/>
<polygon fill="black" stroke="black" points="816.26,-618.37 826.26,-614.87 816.26,-611.37 816.26,-618.37"/>
</g>
<!-- 3 -->
<g id="node4" class="node">
<title>3</title>
<ellipse fill="#e0e0e0" stroke="black" cx="675.16" cy="-542.87" rx="62.87" ry="26.74"/>
<text text-anchor="middle" x="675.16" y="-546.67" font-family="Times,serif" font-size="14.00">CONST &#45;6</text>
<text text-anchor="middle" x="675.16" y="-531.67" font-family="Times,serif" font-size="14.00">dtypes.int</text>
</g>
<!-- 24 -->
<g id="node25" class="node">
<title>24</title>
<ellipse fill="#ffffc0" stroke="black" cx="955.11" cy="-470.87" rx="128.89" ry="26.74"/>
<text text-anchor="middle" x="955.11" y="-474.67" font-family="Times,serif" font-size="14.00">ALU BinaryOps.CMPLT</text>
<text text-anchor="middle" x="955.11" y="-459.67" font-family="Times,serif" font-size="14.00">dtypes.bool</text>
</g>
<!-- 3&#45;&gt;24 -->
<g id="edge4" class="edge">
<title>3&#45;&gt;24</title>
<path fill="none" stroke="black" d="M729.43,-529.07C767.38,-519.24 819.33,-505.78 863.72,-494.29"/>
<polygon fill="black" stroke="black" points="864.85,-497.61 873.65,-491.71 863.09,-490.83 864.85,-497.61"/>
</g>
<!-- 4 -->
<g id="node5" class="node">
<title>4</title>
<ellipse fill="#e0e0e0" stroke="black" cx="675.16" cy="-398.87" rx="62.87" ry="26.74"/>
<text text-anchor="middle" x="675.16" y="-402.67" font-family="Times,serif" font-size="14.00">CONST &#45;5</text>
<text text-anchor="middle" x="675.16" y="-387.67" font-family="Times,serif" font-size="14.00">dtypes.int</text>
</g>
<!-- 27 -->
<g id="node28" class="node">
<title>27</title>
<ellipse fill="#ffffc0" stroke="black" cx="955.11" cy="-398.87" rx="128.89" ry="26.74"/>
<text text-anchor="middle" x="955.11" y="-402.67" font-family="Times,serif" font-size="14.00">ALU BinaryOps.CMPLT</text>
<text text-anchor="middle" x="955.11" y="-387.67" font-family="Times,serif" font-size="14.00">dtypes.bool</text>
</g>
<!-- 4&#45;&gt;27 -->
<g id="edge5" class="edge">
<title>4&#45;&gt;27</title>
<path fill="none" stroke="black" d="M738.19,-398.87C761.42,-398.87 788.84,-398.87 816.2,-398.87"/>
<polygon fill="black" stroke="black" points="816.26,-402.37 826.26,-398.87 816.26,-395.37 816.26,-402.37"/>
</g>
<!-- 5 -->
<g id="node6" class="node">
<title>5</title>
<ellipse fill="#e0e0e0" stroke="black" cx="675.16" cy="-254.87" rx="62.87" ry="26.74"/>
<text text-anchor="middle" x="675.16" y="-258.67" font-family="Times,serif" font-size="14.00">CONST &#45;4</text>
<text text-anchor="middle" x="675.16" y="-243.67" font-family="Times,serif" font-size="14.00">dtypes.int</text>
</g>
<!-- 30 -->
<g id="node31" class="node">
<title>30</title>
<ellipse fill="#ffffc0" stroke="black" cx="955.11" cy="-254.87" rx="128.89" ry="26.74"/>
<text text-anchor="middle" x="955.11" y="-258.67" font-family="Times,serif" font-size="14.00">ALU BinaryOps.CMPLT</text>
<text text-anchor="middle" x="955.11" y="-243.67" font-family="Times,serif" font-size="14.00">dtypes.bool</text>
</g>
<!-- 5&#45;&gt;30 -->
<g id="edge6" class="edge">
<title>5&#45;&gt;30</title>
<path fill="none" stroke="black" d="M738.19,-254.87C761.42,-254.87 788.84,-254.87 816.2,-254.87"/>
<polygon fill="black" stroke="black" points="816.26,-258.37 826.26,-254.87 816.26,-251.37 816.26,-258.37"/>
</g>
<!-- 6 -->
<g id="node7" class="node">
<title>6</title>
<ellipse fill="#e0e0e0" stroke="black" cx="675.16" cy="-182.87" rx="62.87" ry="26.74"/>
<text text-anchor="middle" x="675.16" y="-186.67" font-family="Times,serif" font-size="14.00">CONST &#45;3</text>
<text text-anchor="middle" x="675.16" y="-171.67" font-family="Times,serif" font-size="14.00">dtypes.int</text>
</g>
<!-- 33 -->
<g id="node34" class="node">
<title>33</title>
<ellipse fill="#ffffc0" stroke="black" cx="955.11" cy="-182.87" rx="128.89" ry="26.74"/>
<text text-anchor="middle" x="955.11" y="-186.67" font-family="Times,serif" font-size="14.00">ALU BinaryOps.CMPLT</text>
<text text-anchor="middle" x="955.11" y="-171.67" font-family="Times,serif" font-size="14.00">dtypes.bool</text>
</g>
<!-- 6&#45;&gt;33 -->
<g id="edge7" class="edge">
<title>6&#45;&gt;33</title>
<path fill="none" stroke="black" d="M738.19,-182.87C761.42,-182.87 788.84,-182.87 816.2,-182.87"/>
<polygon fill="black" stroke="black" points="816.26,-186.37 826.26,-182.87 816.26,-179.37 816.26,-186.37"/>
</g>
<!-- 7 -->
<g id="node8" class="node">
<title>7</title>
<ellipse fill="#e0e0e0" stroke="black" cx="126.57" cy="-303.87" rx="62.87" ry="26.74"/>
<text text-anchor="middle" x="126.57" y="-307.67" font-family="Times,serif" font-size="14.00">CONST &#45;2</text>
<text text-anchor="middle" x="126.57" y="-292.67" font-family="Times,serif" font-size="14.00">dtypes.int</text>
</g>
<!-- 14 -->
<g id="node15" class="node">
<title>14</title>
<ellipse fill="#ffffc0" stroke="black" cx="406.52" cy="-470.87" rx="117.26" ry="26.74"/>
<text text-anchor="middle" x="406.52" y="-474.67" font-family="Times,serif" font-size="14.00">ALU BinaryOps.MUL</text>
<text text-anchor="middle" x="406.52" y="-459.67" font-family="Times,serif" font-size="14.00">dtypes.int</text>
</g>
<!-- 7&#45;&gt;14 -->
<g id="edge8" class="edge">
<title>7&#45;&gt;14</title>
<path fill="none" stroke="black" d="M163.91,-325.7C212.8,-355.08 299.97,-407.45 355.16,-440.61"/>
<polygon fill="black" stroke="black" points="353.36,-443.61 363.73,-445.76 356.96,-437.61 353.36,-443.61"/>
</g>
<!-- 36 -->
<g id="node37" class="node">
<title>36</title>
<ellipse fill="#ffffc0" stroke="black" cx="955.11" cy="-72.87" rx="128.89" ry="26.74"/>
<text text-anchor="middle" x="955.11" y="-76.67" font-family="Times,serif" font-size="14.00">ALU BinaryOps.CMPLT</text>
<text text-anchor="middle" x="955.11" y="-61.67" font-family="Times,serif" font-size="14.00">dtypes.bool</text>
</g>
<!-- 7&#45;&gt;36 -->
<g id="edge9" class="edge">
<title>7&#45;&gt;36</title>
<path fill="none" stroke="black" d="M171.92,-285.03C249.38,-252.76 414.9,-186.52 559.9,-146.87 652.18,-121.64 758.93,-102.17 838.06,-89.56"/>
<polygon fill="black" stroke="black" points="838.73,-93 848.06,-87.98 837.64,-86.08 838.73,-93"/>
</g>
<!-- 8 -->
<g id="node9" class="node">
<title>8</title>
<ellipse fill="#e0e0e0" stroke="black" cx="675.16" cy="-758.87" rx="62.87" ry="26.74"/>
<text text-anchor="middle" x="675.16" y="-762.67" font-family="Times,serif" font-size="14.00">CONST &#45;1</text>
<text text-anchor="middle" x="675.16" y="-747.67" font-family="Times,serif" font-size="14.00">dtypes.int</text>
</g>
<!-- 39 -->
<g id="node40" class="node">
<title>39</title>
<ellipse fill="#ffffc0" stroke="black" cx="955.11" cy="-758.87" rx="128.89" ry="26.74"/>
<text text-anchor="middle" x="955.11" y="-762.67" font-family="Times,serif" font-size="14.00">ALU BinaryOps.CMPLT</text>
<text text-anchor="middle" x="955.11" y="-747.67" font-family="Times,serif" font-size="14.00">dtypes.bool</text>
</g>
<!-- 8&#45;&gt;39 -->
<g id="edge10" class="edge">
<title>8&#45;&gt;39</title>
<path fill="none" stroke="black" d="M738.19,-758.87C761.42,-758.87 788.84,-758.87 816.2,-758.87"/>
<polygon fill="black" stroke="black" points="816.26,-762.37 826.26,-758.87 816.26,-755.37 816.26,-762.37"/>
</g>
<!-- 48 -->
<g id="node49" class="node">
<title>48</title>
<ellipse fill="#ffffc0" stroke="black" cx="4028.93" cy="-864.87" rx="115.02" ry="26.74"/>
<text text-anchor="middle" x="4028.93" y="-868.67" font-family="Times,serif" font-size="14.00">ALU BinaryOps.ADD</text>
<text text-anchor="middle" x="4028.93" y="-853.67" font-family="Times,serif" font-size="14.00">dtypes.int</text>
</g>
<!-- 8&#45;&gt;48 -->
<g id="edge11" class="edge">
<title>8&#45;&gt;48</title>
<path fill="none" stroke="black" d="M733.12,-769.37C752.51,-774.81 773.53,-782.91 790.42,-794.87 812.18,-810.28 803.13,-829.88 826.42,-842.87 994.67,-936.69 1065.47,-881.87 1258.11,-881.87 1258.11,-881.87 1258.11,-881.87 3464.37,-881.87 3616.51,-881.87 3791.66,-875.6 3905.79,-870.68"/>
<polygon fill="black" stroke="black" points="3906.11,-874.17 3915.95,-870.24 3905.81,-867.18 3906.11,-874.17"/>
</g>
<!-- 9 -->
<g id="node10" class="node">
<title>9</title>
<ellipse fill="#e0e0e0" stroke="black" cx="955.11" cy="-326.87" rx="62.87" ry="26.74"/>
<text text-anchor="middle" x="955.11" y="-330.67" font-family="Times,serif" font-size="14.00">CONST 0</text>
<text text-anchor="middle" x="955.11" y="-315.67" font-family="Times,serif" font-size="14.00">dtypes.int</text>
</g>
<!-- 20 -->
<g id="node21" class="node">
<title>20</title>
<ellipse fill="#ffffc0" stroke="black" cx="1259.11" cy="-644.87" rx="139.1" ry="26.74"/>
<text text-anchor="middle" x="1259.11" y="-648.67" font-family="Times,serif" font-size="14.00">ALU TernaryOps.WHERE</text>
<text text-anchor="middle" x="1259.11" y="-633.67" font-family="Times,serif" font-size="14.00">dtypes.int</text>
</g>
<!-- 9&#45;&gt;20 -->
<g id="edge12" class="edge">
<title>9&#45;&gt;20</title>
<path fill="none" stroke="black" d="M1017.68,-330.19C1041.63,-334.68 1067.24,-344.01 1083.81,-362.87 1156.72,-445.9 1046.06,-526.58 1119.81,-608.87 1125.1,-614.78 1131.24,-619.78 1137.92,-623.99"/>
<polygon fill="black" stroke="black" points="1136.22,-627.05 1146.64,-628.93 1139.66,-620.96 1136.22,-627.05"/>
</g>
<!-- 22 -->
<g id="node23" class="node">
<title>22</title>
<ellipse fill="#ffffc0" stroke="black" cx="1259.11" cy="-572.87" rx="139.1" ry="26.74"/>
<text text-anchor="middle" x="1259.11" y="-576.67" font-family="Times,serif" font-size="14.00">ALU TernaryOps.WHERE</text>
<text text-anchor="middle" x="1259.11" y="-561.67" font-family="Times,serif" font-size="14.00">dtypes.int</text>
</g>
<!-- 9&#45;&gt;22 -->
<g id="edge13" class="edge">
<title>9&#45;&gt;22</title>
<path fill="none" stroke="black" d="M1017.31,-331.28C1040.91,-335.96 1066.36,-345.14 1083.81,-362.87 1127.66,-407.44 1081.02,-449.83 1119.81,-498.87 1135.47,-518.68 1157.93,-533.84 1180.21,-545.13"/>
<polygon fill="black" stroke="black" points="1178.86,-548.37 1189.39,-549.58 1181.92,-542.07 1178.86,-548.37"/>
</g>
<!-- 25 -->
<g id="node26" class="node">
<title>25</title>
<ellipse fill="#ffffc0" stroke="black" cx="1259.11" cy="-462.87" rx="139.1" ry="26.74"/>
<text text-anchor="middle" x="1259.11" y="-466.67" font-family="Times,serif" font-size="14.00">ALU TernaryOps.WHERE</text>
<text text-anchor="middle" x="1259.11" y="-451.67" font-family="Times,serif" font-size="14.00">dtypes.int</text>
</g>
<!-- 9&#45;&gt;25 -->
<g id="edge14" class="edge">
<title>9&#45;&gt;25</title>
<path fill="none" stroke="black" d="M1016.17,-333.84C1039.19,-338.92 1064.53,-347.7 1083.81,-362.87 1109.46,-383.05 1093.96,-406.95 1119.81,-426.87 1127.1,-432.49 1135.17,-437.23 1143.66,-441.24"/>
<polygon fill="black" stroke="black" points="1142.45,-444.53 1153.02,-445.3 1145.24,-438.11 1142.45,-444.53"/>
</g>
<!-- 28 -->
<g id="node29" class="node">
<title>28</title>
<ellipse fill="#ffffc0" stroke="black" cx="1259.11" cy="-390.87" rx="139.1" ry="26.74"/>
<text text-anchor="middle" x="1259.11" y="-394.67" font-family="Times,serif" font-size="14.00">ALU TernaryOps.WHERE</text>
<text text-anchor="middle" x="1259.11" y="-379.67" font-family="Times,serif" font-size="14.00">dtypes.int</text>
</g>
<!-- 9&#45;&gt;28 -->
<g id="edge15" class="edge">
<title>9&#45;&gt;28</title>
<path fill="none" stroke="black" d="M1011.86,-338.68C1051.88,-347.16 1106.99,-358.84 1154.92,-369"/>
<polygon fill="black" stroke="black" points="1154.22,-372.43 1164.72,-371.08 1155.67,-365.58 1154.22,-372.43"/>
</g>
<!-- 31 -->
<g id="node32" class="node">
<title>31</title>
<ellipse fill="#ffffc0" stroke="black" cx="1259.11" cy="-280.87" rx="139.1" ry="26.74"/>
<text text-anchor="middle" x="1259.11" y="-284.67" font-family="Times,serif" font-size="14.00">ALU TernaryOps.WHERE</text>
<text text-anchor="middle" x="1259.11" y="-269.67" font-family="Times,serif" font-size="14.00">dtypes.int</text>
</g>
<!-- 9&#45;&gt;31 -->
<g id="edge16" class="edge">
<title>9&#45;&gt;31</title>
<path fill="none" stroke="black" d="M1014.7,-317.95C1050.11,-312.55 1096.53,-305.48 1139.33,-298.96"/>
<polygon fill="black" stroke="black" points="1139.9,-302.42 1149.26,-297.45 1138.84,-295.5 1139.9,-302.42"/>
</g>
<!-- 34 -->
<g id="node35" class="node">
<title>34</title>
<ellipse fill="#ffffc0" stroke="black" cx="1259.11" cy="-208.87" rx="139.1" ry="26.74"/>
<text text-anchor="middle" x="1259.11" y="-212.67" font-family="Times,serif" font-size="14.00">ALU TernaryOps.WHERE</text>
<text text-anchor="middle" x="1259.11" y="-197.67" font-family="Times,serif" font-size="14.00">dtypes.int</text>
</g>
<!-- 9&#45;&gt;34 -->
<g id="edge17" class="edge">
<title>9&#45;&gt;34</title>
<path fill="none" stroke="black" d="M1015.05,-318.36C1037.91,-313.06 1063.43,-304.53 1083.81,-290.87 1105.37,-276.41 1098.1,-259.11 1119.81,-244.87 1128.13,-239.41 1137.24,-234.77 1146.69,-230.84"/>
<polygon fill="black" stroke="black" points="1148.18,-234.02 1156.24,-227.14 1145.65,-227.49 1148.18,-234.02"/>
</g>
<!-- 37 -->
<g id="node38" class="node">
<title>37</title>
<ellipse fill="#ffffc0" stroke="black" cx="1259.11" cy="-136.87" rx="139.1" ry="26.74"/>
<text text-anchor="middle" x="1259.11" y="-140.67" font-family="Times,serif" font-size="14.00">ALU TernaryOps.WHERE</text>
<text text-anchor="middle" x="1259.11" y="-125.67" font-family="Times,serif" font-size="14.00">dtypes.int</text>
</g>
<!-- 9&#45;&gt;37 -->
<g id="edge18" class="edge">
<title>9&#45;&gt;37</title>
<path fill="none" stroke="black" d="M1017.31,-322.07C1040.76,-317.31 1066.11,-308.19 1083.81,-290.87 1122.99,-252.51 1080.24,-210.83 1119.81,-172.87 1125.72,-167.19 1132.42,-162.38 1139.59,-158.31"/>
<polygon fill="black" stroke="black" points="1141.6,-161.21 1148.91,-153.53 1138.41,-154.98 1141.6,-161.21"/>
</g>
<!-- 40 -->
<g id="node41" class="node">
<title>40</title>
<ellipse fill="#ffffc0" stroke="black" cx="1259.11" cy="-754.87" rx="139.1" ry="26.74"/>
<text text-anchor="middle" x="1259.11" y="-758.67" font-family="Times,serif" font-size="14.00">ALU TernaryOps.WHERE</text>
<text text-anchor="middle" x="1259.11" y="-743.67" font-family="Times,serif" font-size="14.00">dtypes.int</text>
</g>
<!-- 9&#45;&gt;40 -->
<g id="edge19" class="edge">
<title>9&#45;&gt;40</title>
<path fill="none" stroke="black" d="M1017.66,-329.86C1041.75,-334.29 1067.48,-343.65 1083.81,-362.87 1175.91,-471.26 1039.95,-563.17 1119.81,-680.87 1133.52,-701.08 1154.6,-716.21 1176.2,-727.34"/>
<polygon fill="black" stroke="black" points="1174.95,-730.63 1185.47,-731.87 1178.02,-724.34 1174.95,-730.63"/>
</g>
<!-- 42 -->
<g id="node43" class="node">
<title>42</title>
<ellipse fill="#ffffc0" stroke="black" cx="1259.11" cy="-26.87" rx="128.89" ry="26.74"/>
<text text-anchor="middle" x="1259.11" y="-30.67" font-family="Times,serif" font-size="14.00">ALU BinaryOps.CMPLT</text>
<text text-anchor="middle" x="1259.11" y="-15.67" font-family="Times,serif" font-size="14.00">dtypes.bool</text>
</g>
<!-- 9&#45;&gt;42 -->
<g id="edge20" class="edge">
<title>9&#45;&gt;42</title>
<path fill="none" stroke="black" d="M1017.55,-323.43C1041.47,-318.92 1067.1,-309.61 1083.81,-290.87 1150.61,-215.93 1053.51,-143.26 1119.81,-67.87 1127.15,-59.52 1136.11,-52.83 1145.9,-47.48"/>
<polygon fill="black" stroke="black" points="1147.69,-50.5 1155.1,-42.94 1144.59,-44.23 1147.69,-50.5"/>
</g>
<!-- 43 -->
<g id="node44" class="node">
<title>43</title>
<ellipse fill="#ffffc0" stroke="black" cx="1573.71" cy="-91.87" rx="139.1" ry="26.74"/>
<text text-anchor="middle" x="1573.71" y="-95.67" font-family="Times,serif" font-size="14.00">ALU TernaryOps.WHERE</text>
<text text-anchor="middle" x="1573.71" y="-80.67" font-family="Times,serif" font-size="14.00">dtypes.int</text>
</g>
<!-- 9&#45;&gt;43 -->
<g id="edge21" class="edge">
<title>9&#45;&gt;43</title>
<path fill="none" stroke="black" d="M1017.63,-323.14C1041.42,-318.57 1066.93,-309.3 1083.81,-290.87 1141.86,-227.5 1054.17,-156.35 1119.81,-100.87 1167.12,-60.88 1327.7,-66.7 1444.24,-77.09"/>
<polygon fill="black" stroke="black" points="1444.03,-80.59 1454.31,-78.01 1444.67,-73.62 1444.03,-80.59"/>
</g>
<!-- 46 -->
<g id="node47" class="node">
<title>46</title>
<ellipse fill="#ffffc0" stroke="black" cx="1573.71" cy="-699.87" rx="139.1" ry="26.74"/>
<text text-anchor="middle" x="1573.71" y="-703.67" font-family="Times,serif" font-size="14.00">ALU TernaryOps.WHERE</text>
<text text-anchor="middle" x="1573.71" y="-688.67" font-family="Times,serif" font-size="14.00">dtypes.int</text>
</g>
<!-- 9&#45;&gt;46 -->
<g id="edge22" class="edge">
<title>9&#45;&gt;46</title>
<path fill="none" stroke="black" d="M1018.34,-326.54C1133.61,-326.55 1371.16,-329.66 1398.41,-354.87 1482.1,-432.31 1373.38,-512.56 1434.41,-608.87 1451.27,-635.48 1479.05,-655.99 1505.3,-670.74"/>
<polygon fill="black" stroke="black" points="1503.67,-673.83 1514.13,-675.52 1507,-667.68 1503.67,-673.83"/>
</g>
<!-- 10 -->
<g id="node11" class="node">
<title>10</title>
<ellipse fill="#e0e0e0" stroke="black" cx="955.11" cy="-542.87" rx="62.87" ry="26.74"/>
<text text-anchor="middle" x="955.11" y="-546.67" font-family="Times,serif" font-size="14.00">CONST 1</text>
<text text-anchor="middle" x="955.11" y="-531.67" font-family="Times,serif" font-size="14.00">dtypes.int</text>
</g>
<!-- 10&#45;&gt;20 -->
<g id="edge23" class="edge">
<title>10&#45;&gt;20</title>
<path fill="none" stroke="black" d="M1013.05,-553.51C1035.87,-559.14 1061.9,-567.33 1083.81,-578.87 1102.24,-588.58 1101.28,-599.35 1119.81,-608.87 1129.88,-614.04 1140.75,-618.52 1151.82,-622.38"/>
<polygon fill="black" stroke="black" points="1151,-625.79 1161.59,-625.61 1153.2,-619.14 1151,-625.79"/>
</g>
<!-- 10&#45;&gt;22 -->
<g id="edge24" class="edge">
<title>10&#45;&gt;22</title>
<path fill="none" stroke="black" d="M1016.5,-548.87C1047.63,-551.96 1086.91,-555.86 1124.7,-559.62"/>
<polygon fill="black" stroke="black" points="1124.49,-563.11 1134.79,-560.62 1125.18,-556.15 1124.49,-563.11"/>
</g>
<!-- 10&#45;&gt;25 -->
<g id="edge25" class="edge">
<title>10&#45;&gt;25</title>
<path fill="none" stroke="black" d="M1009.06,-528.84C1052.53,-517.33 1115.09,-500.76 1166.63,-487.1"/>
<polygon fill="black" stroke="black" points="1167.68,-490.45 1176.45,-484.5 1165.89,-483.68 1167.68,-490.45"/>
</g>
<!-- 10&#45;&gt;28 -->
<g id="edge26" class="edge">
<title>10&#45;&gt;28</title>
<path fill="none" stroke="black" d="M1016.56,-536.83C1039.77,-531.89 1065.14,-522.96 1083.81,-506.87 1113.34,-481.41 1090.02,-452.03 1119.81,-426.87 1126.56,-421.17 1134.1,-416.36 1142.09,-412.3"/>
<polygon fill="black" stroke="black" points="1143.69,-415.42 1151.29,-408.03 1140.74,-409.07 1143.69,-415.42"/>
</g>
<!-- 10&#45;&gt;31 -->
<g id="edge27" class="edge">
<title>10&#45;&gt;31</title>
<path fill="none" stroke="black" d="M1017.54,-538.69C1041.18,-534.04 1066.59,-524.83 1083.81,-506.87 1131.85,-456.75 1077.46,-409.88 1119.81,-354.87 1135.14,-334.96 1157.39,-319.78 1179.57,-308.52"/>
<polygon fill="black" stroke="black" points="1181.25,-311.6 1188.72,-304.09 1178.2,-305.3 1181.25,-311.6"/>
</g>
<!-- 10&#45;&gt;34 -->
<g id="edge28" class="edge">
<title>10&#45;&gt;34</title>
<path fill="none" stroke="black" d="M1017.77,-539.62C1041.73,-535.14 1067.32,-525.81 1083.81,-506.87 1160.98,-418.22 1041.74,-332.74 1119.81,-244.87 1125.08,-238.94 1131.19,-233.92 1137.86,-229.69"/>
<polygon fill="black" stroke="black" points="1139.6,-232.73 1146.57,-224.74 1136.14,-226.64 1139.6,-232.73"/>
</g>
<!-- 10&#45;&gt;37 -->
<g id="edge29" class="edge">
<title>10&#45;&gt;37</title>
<path fill="none" stroke="black" d="M1017.71,-539.92C1041.81,-535.5 1067.53,-526.13 1083.81,-506.87 1180.18,-392.84 1022.29,-285.93 1119.81,-172.87 1124.82,-167.06 1130.64,-162.12 1137,-157.94"/>
<polygon fill="black" stroke="black" points="1139.12,-160.76 1145.99,-152.69 1135.59,-154.72 1139.12,-160.76"/>
</g>
<!-- 10&#45;&gt;40 -->
<g id="edge30" class="edge">
<title>10&#45;&gt;40</title>
<path fill="none" stroke="black" d="M1017.29,-547.29C1040.89,-551.98 1066.34,-561.16 1083.81,-578.87 1127.4,-623.09 1076.51,-669.36 1119.81,-713.87 1127.15,-721.42 1135.82,-727.6 1145.17,-732.65"/>
<polygon fill="black" stroke="black" points="1143.81,-735.88 1154.32,-737.15 1146.9,-729.59 1143.81,-735.88"/>
</g>
<!-- 10&#45;&gt;43 -->
<g id="edge31" class="edge">
<title>10&#45;&gt;43</title>
<path fill="none" stroke="black" d="M1017.83,-540.19C1132.24,-534.71 1368.38,-520.89 1398.41,-498.87 1522.23,-408.08 1558.94,-211.19 1569.09,-129.04"/>
<polygon fill="black" stroke="black" points="1572.59,-129.26 1570.28,-118.92 1565.64,-128.44 1572.59,-129.26"/>
</g>
<!-- 45 -->
<g id="node46" class="node">
<title>45</title>
<ellipse fill="#ffffc0" stroke="black" cx="1259.11" cy="-826.87" rx="128.89" ry="26.74"/>
<text text-anchor="middle" x="1259.11" y="-830.67" font-family="Times,serif" font-size="14.00">ALU BinaryOps.CMPLT</text>
<text text-anchor="middle" x="1259.11" y="-815.67" font-family="Times,serif" font-size="14.00">dtypes.bool</text>
</g>
<!-- 10&#45;&gt;45 -->
<g id="edge32" class="edge">
<title>10&#45;&gt;45</title>
<path fill="none" stroke="black" d="M1017.8,-546.44C1041.62,-550.98 1067.1,-560.28 1083.81,-578.87 1147.69,-649.95 1055.21,-720.43 1119.81,-790.87 1125.96,-797.58 1133.19,-803.1 1141.06,-807.65"/>
<polygon fill="black" stroke="black" points="1139.71,-810.89 1150.2,-812.37 1142.92,-804.67 1139.71,-810.89"/>
</g>
<!-- 10&#45;&gt;46 -->
<g id="edge33" class="edge">
<title>10&#45;&gt;46</title>
<path fill="none" stroke="black" d="M1016.93,-548.06C1040.33,-552.88 1065.74,-561.94 1083.81,-578.87 1118.88,-611.75 1081.15,-652.29 1119.81,-680.87 1168.06,-716.55 1319.58,-716.46 1434.19,-710.56"/>
<polygon fill="black" stroke="black" points="1434.66,-714.04 1444.46,-710.01 1434.29,-707.05 1434.66,-714.04"/>
</g>
<!-- 11 -->
<g id="node12" class="node">
<title>11</title>
<ellipse fill="#e0e0e0" stroke="black" cx="126.57" cy="-662.87" rx="62.87" ry="26.74"/>
<text text-anchor="middle" x="126.57" y="-666.67" font-family="Times,serif" font-size="14.00">CONST 2</text>
<text text-anchor="middle" x="126.57" y="-651.67" font-family="Times,serif" font-size="14.00">dtypes.int</text>
</g>
<!-- 15 -->
<g id="node16" class="node">
<title>15</title>
<ellipse fill="#ffffc0" stroke="black" cx="406.52" cy="-662.87" rx="117.26" ry="26.74"/>
<text text-anchor="middle" x="406.52" y="-666.67" font-family="Times,serif" font-size="14.00">ALU BinaryOps.MUL</text>
<text text-anchor="middle" x="406.52" y="-651.67" font-family="Times,serif" font-size="14.00">dtypes.int</text>
</g>
<!-- 11&#45;&gt;15 -->
<g id="edge34" class="edge">
<title>11&#45;&gt;15</title>
<path fill="none" stroke="black" d="M189.6,-662.87C216.02,-662.87 247.86,-662.87 278.87,-662.87"/>
<polygon fill="black" stroke="black" points="278.91,-666.37 288.91,-662.87 278.91,-659.37 278.91,-666.37"/>
</g>
<!-- 12 -->
<g id="node13" class="node">
<title>12</title>
<ellipse fill="#c0c0ff" stroke="black" cx="126.57" cy="-510.87" rx="126.64" ry="26.74"/>
<text text-anchor="middle" x="126.57" y="-514.67" font-family="Times,serif" font-size="14.00">SPECIAL (0, &#39;gidx0&#39;, 5)</text>
<text text-anchor="middle" x="126.57" y="-499.67" font-family="Times,serif" font-size="14.00">dtypes.int</text>
</g>
<!-- 12&#45;&gt;14 -->
<g id="edge35" class="edge">
<title>12&#45;&gt;14</title>
<path fill="none" stroke="black" d="M231.86,-495.86C253.01,-492.82 275.29,-489.61 296.59,-486.55"/>
<polygon fill="black" stroke="black" points="297.23,-489.99 306.63,-485.1 296.23,-483.06 297.23,-489.99"/>
</g>
<!-- 12&#45;&gt;15 -->
<g id="edge36" class="edge">
<title>12&#45;&gt;15</title>
<path fill="none" stroke="black" d="M173.47,-535.97C222.2,-562.62 299.18,-604.72 350.97,-633.04"/>
<polygon fill="black" stroke="black" points="349.57,-636.26 360.02,-637.99 352.93,-630.12 349.57,-636.26"/>
</g>
<!-- 13 -->
<g id="node14" class="node">
<title>13</title>
<ellipse fill="#c0c0ff" stroke="black" cx="126.57" cy="-781.87" rx="123.99" ry="26.74"/>
<text text-anchor="middle" x="126.57" y="-785.67" font-family="Times,serif" font-size="14.00">SPECIAL (0, &#39;lidx0&#39;, 2)</text>
<text text-anchor="middle" x="126.57" y="-770.67" font-family="Times,serif" font-size="14.00">dtypes.int</text>
</g>
<!-- 16 -->
<g id="node17" class="node">
<title>16</title>
<ellipse fill="#ffffc0" stroke="black" cx="675.16" cy="-830.87" rx="115.02" ry="26.74"/>
<text text-anchor="middle" x="675.16" y="-834.67" font-family="Times,serif" font-size="14.00">ALU BinaryOps.ADD</text>
<text text-anchor="middle" x="675.16" y="-819.67" font-family="Times,serif" font-size="14.00">dtypes.int</text>
</g>
<!-- 13&#45;&gt;16 -->
<g id="edge37" class="edge">
<title>13&#45;&gt;16</title>
<path fill="none" stroke="black" d="M241.16,-792.05C333.66,-800.34 463.76,-812.01 557.16,-820.38"/>
<polygon fill="black" stroke="black" points="556.95,-823.88 567.22,-821.28 557.58,-816.9 556.95,-823.88"/>
</g>
<!-- 17 -->
<g id="node18" class="node">
<title>17</title>
<ellipse fill="#ffffc0" stroke="black" cx="406.52" cy="-754.87" rx="113.69" ry="26.74"/>
<text text-anchor="middle" x="406.52" y="-758.67" font-family="Times,serif" font-size="14.00">ALU UnaryOps.NEG</text>
<text text-anchor="middle" x="406.52" y="-743.67" font-family="Times,serif" font-size="14.00">dtypes.int</text>
</g>
<!-- 13&#45;&gt;17 -->
<g id="edge38" class="edge">
<title>13&#45;&gt;17</title>
<path fill="none" stroke="black" d="M239.82,-770.97C256.54,-769.34 273.8,-767.67 290.57,-766.04"/>
<polygon fill="black" stroke="black" points="291.33,-769.48 300.95,-765.03 290.66,-762.51 291.33,-769.48"/>
</g>
<!-- 18 -->
<g id="node19" class="node">
<title>18</title>
<ellipse fill="#ffffc0" stroke="black" cx="675.16" cy="-470.87" rx="115.02" ry="26.74"/>
<text text-anchor="middle" x="675.16" y="-474.67" font-family="Times,serif" font-size="14.00">ALU BinaryOps.ADD</text>
<text text-anchor="middle" x="675.16" y="-459.67" font-family="Times,serif" font-size="14.00">dtypes.int</text>
</g>
<!-- 14&#45;&gt;18 -->
<g id="edge39" class="edge">
<title>14&#45;&gt;18</title>
<path fill="none" stroke="black" d="M524.09,-470.87C532.46,-470.87 540.91,-470.87 549.33,-470.87"/>
<polygon fill="black" stroke="black" points="549.56,-474.37 559.56,-470.87 549.56,-467.37 549.56,-474.37"/>
</g>
<!-- 15&#45;&gt;16 -->
<g id="edge40" class="edge">
<title>15&#45;&gt;16</title>
<path fill="none" stroke="black" d="M473.22,-685.06C491.28,-693.51 509.76,-704.64 523.9,-718.87 550.25,-745.38 531.73,-770.31 559.9,-794.87 565.91,-800.11 572.68,-804.58 579.85,-808.41"/>
<polygon fill="black" stroke="black" points="578.59,-811.69 589.12,-812.91 581.65,-805.39 578.59,-811.69"/>
</g>
<!-- 16&#45;&gt;49 -->
<g id="edge41" class="edge">
<title>16&#45;&gt;49</title>
<path fill="none" stroke="black" d="M731.9,-854.37C759.8,-865.13 794.37,-877 826.42,-883.87 1014.67,-924.22 1065.58,-919.87 1258.11,-919.87 1258.11,-919.87 1258.11,-919.87 3730.88,-919.87 3902.32,-919.87 4105.01,-919.87 4202.19,-919.87"/>
<polygon fill="black" stroke="black" points="4202.38,-923.37 4212.38,-919.87 4202.38,-916.37 4202.38,-923.37"/>
</g>
<!-- 17&#45;&gt;18 -->
<g id="edge42" class="edge">
<title>17&#45;&gt;18</title>
<path fill="none" stroke="black" d="M477.81,-733.83C495.19,-725.52 512.18,-714.18 523.9,-698.87 576.71,-629.96 502.3,-571.83 559.9,-506.87 564.63,-501.54 570.14,-496.99 576.14,-493.11"/>
<polygon fill="black" stroke="black" points="578.31,-495.9 585.24,-487.89 574.82,-489.83 578.31,-495.9"/>
</g>
<!-- 18&#45;&gt;19 -->
<g id="edge43" class="edge">
<title>18&#45;&gt;19</title>
<path fill="none" stroke="black" d="M764.07,-488.02C773.89,-492.84 783.01,-499 790.42,-506.87 835.64,-554.9 780.47,-603.53 826.42,-650.87 831.95,-656.56 838.3,-661.38 845.15,-665.45"/>
<polygon fill="black" stroke="black" points="843.61,-668.59 854.08,-670.21 846.91,-662.41 843.61,-668.59"/>
</g>
<!-- 18&#45;&gt;21 -->
<g id="edge44" class="edge">
<title>18&#45;&gt;21</title>
<path fill="none" stroke="black" d="M760.77,-488.87C771.48,-493.55 781.72,-499.45 790.42,-506.87 817.64,-530.09 798.85,-556.07 826.42,-578.87 833.13,-584.42 840.63,-589.11 848.56,-593.08"/>
<polygon fill="black" stroke="black" points="847.12,-596.27 857.67,-597.26 850.04,-589.91 847.12,-596.27"/>
</g>
<!-- 18&#45;&gt;24 -->
<g id="edge45" class="edge">
<title>18&#45;&gt;24</title>
<path fill="none" stroke="black" d="M790.82,-470.87C799.11,-470.87 807.52,-470.87 815.93,-470.87"/>
<polygon fill="black" stroke="black" points="816.18,-474.37 826.18,-470.87 816.18,-467.37 816.18,-474.37"/>
</g>
<!-- 18&#45;&gt;27 -->
<g id="edge46" class="edge">
<title>18&#45;&gt;27</title>
<path fill="none" stroke="black" d="M752.85,-451.01C787.07,-442.14 827.65,-431.63 863.37,-422.38"/>
<polygon fill="black" stroke="black" points="864.51,-425.7 873.31,-419.8 862.75,-418.92 864.51,-425.7"/>
</g>
<!-- 18&#45;&gt;30 -->
<g id="edge47" class="edge">
<title>18&#45;&gt;30</title>
<path fill="none" stroke="black" d="M764.07,-453.72C773.89,-448.9 783.01,-442.74 790.42,-434.87 835.64,-386.84 780.47,-338.21 826.42,-290.87 831.95,-285.18 838.3,-280.36 845.15,-276.3"/>
<polygon fill="black" stroke="black" points="846.91,-279.33 854.08,-271.53 843.61,-273.15 846.91,-279.33"/>
</g>
<!-- 18&#45;&gt;33 -->
<g id="edge48" class="edge">
<title>18&#45;&gt;33</title>
<path fill="none" stroke="black" d="M765.24,-453.99C774.74,-449.12 783.46,-442.88 790.42,-434.87 854.25,-361.4 761.48,-291.36 826.42,-218.87 831.49,-213.21 837.38,-208.41 843.79,-204.34"/>
<polygon fill="black" stroke="black" points="845.83,-207.21 852.82,-199.24 842.39,-201.11 845.83,-207.21"/>
</g>
<!-- 18&#45;&gt;36 -->
<g id="edge49" class="edge">
<title>18&#45;&gt;36</title>
<path fill="none" stroke="black" d="M765.93,-454.2C775.26,-449.29 783.75,-442.98 790.42,-434.87 881.65,-324.02 735.49,-224.96 826.42,-113.87 832.55,-106.38 840.05,-100.24 848.33,-95.22"/>
<polygon fill="black" stroke="black" points="850.1,-98.23 857.2,-90.37 846.75,-92.09 850.1,-98.23"/>
</g>
<!-- 18&#45;&gt;39 -->
<g id="edge50" class="edge">
<title>18&#45;&gt;39</title>
<path fill="none" stroke="black" d="M765.24,-487.75C774.74,-492.62 783.46,-498.86 790.42,-506.87 854.25,-580.34 761.48,-650.38 826.42,-722.87 831.49,-728.53 837.38,-733.33 843.79,-737.4"/>
<polygon fill="black" stroke="black" points="842.39,-740.63 852.82,-742.5 845.83,-734.53 842.39,-740.63"/>
</g>
<!-- 18&#45;&gt;42 -->
<g id="edge51" class="edge">
<title>18&#45;&gt;42</title>
<path fill="none" stroke="black" d="M765.83,-454.11C775.18,-449.22 783.69,-442.94 790.42,-434.87 873.02,-335.79 736.23,-239.09 826.42,-146.87 907.27,-64.2 982.9,-165.34 1083.81,-108.87 1105.56,-96.7 1098.88,-79.41 1119.81,-65.87 1130.38,-59.03 1142.17,-53.36 1154.28,-48.69"/>
<polygon fill="black" stroke="black" points="1155.83,-51.84 1164.04,-45.14 1153.44,-45.26 1155.83,-51.84"/>
</g>
<!-- 18&#45;&gt;45 -->
<g id="edge52" class="edge">
<title>18&#45;&gt;45</title>
<path fill="none" stroke="black" d="M765.83,-487.63C775.18,-492.52 783.69,-498.8 790.42,-506.87 873.02,-605.95 732.94,-705.98 826.42,-794.87 916.59,-880.61 1070.69,-868.83 1168.31,-849.81"/>
<polygon fill="black" stroke="black" points="1169.05,-853.23 1178.16,-847.83 1167.67,-846.37 1169.05,-853.23"/>
</g>
<!-- 19&#45;&gt;20 -->
<g id="edge53" class="edge">
<title>19&#45;&gt;20</title>
<path fill="none" stroke="black" d="M1062.59,-672.06C1086.24,-668.77 1111.5,-665.26 1135.74,-661.89"/>
<polygon fill="black" stroke="black" points="1136.27,-665.35 1145.69,-660.5 1135.3,-658.42 1136.27,-665.35"/>
</g>
<!-- 23 -->
<g id="node24" class="node">
<title>23</title>
<ellipse fill="#ffffc0" stroke="black" cx="1573.71" cy="-572.87" rx="115.02" ry="26.74"/>
<text text-anchor="middle" x="1573.71" y="-576.67" font-family="Times,serif" font-size="14.00">ALU BinaryOps.ADD</text>
<text text-anchor="middle" x="1573.71" y="-561.67" font-family="Times,serif" font-size="14.00">dtypes.int</text>
</g>
<!-- 20&#45;&gt;23 -->
<g id="edge54" class="edge">
<title>20&#45;&gt;23</title>
<path fill="none" stroke="black" d="M1349.27,-624.33C1390.62,-614.81 1439.71,-603.5 1481.33,-593.92"/>
<polygon fill="black" stroke="black" points="1482.23,-597.3 1491.18,-591.65 1480.65,-590.48 1482.23,-597.3"/>
</g>
<!-- 21&#45;&gt;22 -->
<g id="edge55" class="edge">
<title>21&#45;&gt;22</title>
<path fill="none" stroke="black" d="M1062.59,-600.06C1086.24,-596.77 1111.5,-593.26 1135.74,-589.89"/>
<polygon fill="black" stroke="black" points="1136.27,-593.35 1145.69,-588.5 1135.3,-586.42 1136.27,-593.35"/>
</g>
<!-- 22&#45;&gt;23 -->
<g id="edge56" class="edge">
<title>22&#45;&gt;23</title>
<path fill="none" stroke="black" d="M1398.58,-572.87C1415.08,-572.87 1431.85,-572.87 1448.14,-572.87"/>
<polygon fill="black" stroke="black" points="1448.21,-576.37 1458.21,-572.87 1448.21,-569.37 1448.21,-576.37"/>
</g>
<!-- 26 -->
<g id="node27" class="node">
<title>26</title>
<ellipse fill="#ffffc0" stroke="black" cx="1864.27" cy="-462.87" rx="115.02" ry="26.74"/>
<text text-anchor="middle" x="1864.27" y="-466.67" font-family="Times,serif" font-size="14.00">ALU BinaryOps.ADD</text>
<text text-anchor="middle" x="1864.27" y="-451.67" font-family="Times,serif" font-size="14.00">dtypes.int</text>
</g>
<!-- 23&#45;&gt;26 -->
<g id="edge57" class="edge">
<title>23&#45;&gt;26</title>
<path fill="none" stroke="black" d="M1634.85,-549.94C1681.15,-532.29 1745.22,-507.87 1793.72,-489.38"/>
<polygon fill="black" stroke="black" points="1795.11,-492.6 1803.2,-485.77 1792.61,-486.06 1795.11,-492.6"/>
</g>
<!-- 24&#45;&gt;25 -->
<g id="edge58" class="edge">
<title>24&#45;&gt;25</title>
<path fill="none" stroke="black" d="M1082.87,-467.51C1092.12,-467.27 1101.49,-467.02 1110.84,-466.77"/>
<polygon fill="black" stroke="black" points="1111.07,-470.27 1120.97,-466.5 1110.89,-463.27 1111.07,-470.27"/>
</g>
<!-- 25&#45;&gt;26 -->
<g id="edge59" class="edge">
<title>25&#45;&gt;26</title>
<path fill="none" stroke="black" d="M1398.48,-462.87C1501.04,-462.87 1639.63,-462.87 1738.73,-462.87"/>
<polygon fill="black" stroke="black" points="1738.8,-466.37 1748.8,-462.87 1738.8,-459.37 1738.8,-466.37"/>
</g>
<!-- 29 -->
<g id="node30" class="node">
<title>29</title>
<ellipse fill="#ffffc0" stroke="black" cx="2130.78" cy="-390.87" rx="115.02" ry="26.74"/>
<text text-anchor="middle" x="2130.78" y="-394.67" font-family="Times,serif" font-size="14.00">ALU BinaryOps.ADD</text>
<text text-anchor="middle" x="2130.78" y="-379.67" font-family="Times,serif" font-size="14.00">dtypes.int</text>
</g>
<!-- 26&#45;&gt;29 -->
<g id="edge60" class="edge">
<title>26&#45;&gt;29</title>
<path fill="none" stroke="black" d="M1940.01,-442.53C1972.82,-433.59 2011.5,-423.07 2045.35,-413.85"/>
<polygon fill="black" stroke="black" points="2046.5,-417.17 2055.23,-411.16 2044.66,-410.41 2046.5,-417.17"/>
</g>
<!-- 27&#45;&gt;28 -->
<g id="edge61" class="edge">
<title>27&#45;&gt;28</title>
<path fill="none" stroke="black" d="M1082.87,-395.51C1092.12,-395.27 1101.49,-395.02 1110.84,-394.77"/>
<polygon fill="black" stroke="black" points="1111.07,-398.27 1120.97,-394.5 1110.89,-391.27 1111.07,-398.27"/>
</g>
<!-- 28&#45;&gt;29 -->
<g id="edge62" class="edge">
<title>28&#45;&gt;29</title>
<path fill="none" stroke="black" d="M1398.87,-390.87C1566.04,-390.87 1844.4,-390.87 2005.04,-390.87"/>
<polygon fill="black" stroke="black" points="2005.45,-394.37 2015.45,-390.87 2005.45,-387.37 2005.45,-394.37"/>
</g>
<!-- 32 -->
<g id="node33" class="node">
<title>32</title>
<ellipse fill="#ffffc0" stroke="black" cx="2397.3" cy="-280.87" rx="115.02" ry="26.74"/>
<text text-anchor="middle" x="2397.3" y="-284.67" font-family="Times,serif" font-size="14.00">ALU BinaryOps.ADD</text>
<text text-anchor="middle" x="2397.3" y="-269.67" font-family="Times,serif" font-size="14.00">dtypes.int</text>
</g>
<!-- 29&#45;&gt;32 -->
<g id="edge63" class="edge">
<title>29&#45;&gt;32</title>
<path fill="none" stroke="black" d="M2188.2,-367.41C2229.9,-350.07 2286.8,-326.41 2330.56,-308.21"/>
<polygon fill="black" stroke="black" points="2332.08,-311.37 2339.97,-304.3 2329.39,-304.9 2332.08,-311.37"/>
</g>
<!-- 30&#45;&gt;31 -->
<g id="edge64" class="edge">
<title>30&#45;&gt;31</title>
<path fill="none" stroke="black" d="M1074.6,-265.07C1089.92,-266.39 1105.71,-267.75 1121.29,-269.09"/>
<polygon fill="black" stroke="black" points="1121.23,-272.6 1131.49,-269.97 1121.83,-265.62 1121.23,-272.6"/>
</g>
<!-- 31&#45;&gt;32 -->
<g id="edge65" class="edge">
<title>31&#45;&gt;32</title>
<path fill="none" stroke="black" d="M1398.57,-280.87C1621.8,-280.87 2057.76,-280.87 2271.76,-280.87"/>
<polygon fill="black" stroke="black" points="2271.78,-284.37 2281.78,-280.87 2271.78,-277.37 2271.78,-284.37"/>
</g>
<!-- 35 -->
<g id="node36" class="node">
<title>35</title>
<ellipse fill="#ffffc0" stroke="black" cx="2663.82" cy="-253.87" rx="115.02" ry="26.74"/>
<text text-anchor="middle" x="2663.82" y="-257.67" font-family="Times,serif" font-size="14.00">ALU BinaryOps.ADD</text>
<text text-anchor="middle" x="2663.82" y="-242.67" font-family="Times,serif" font-size="14.00">dtypes.int</text>
</g>
<!-- 32&#45;&gt;35 -->
<g id="edge66" class="edge">
<title>32&#45;&gt;35</title>
<path fill="none" stroke="black" d="M2503.22,-270.16C2517.87,-268.66 2532.99,-267.12 2547.81,-265.61"/>
<polygon fill="black" stroke="black" points="2548.43,-269.06 2558.02,-264.57 2547.72,-262.1 2548.43,-269.06"/>
</g>
<!-- 33&#45;&gt;34 -->
<g id="edge67" class="edge">
<title>33&#45;&gt;34</title>
<path fill="none" stroke="black" d="M1074.6,-193.07C1089.92,-194.39 1105.71,-195.75 1121.29,-197.09"/>
<polygon fill="black" stroke="black" points="1121.23,-200.6 1131.49,-197.97 1121.83,-193.62 1121.23,-200.6"/>
</g>
<!-- 34&#45;&gt;35 -->
<g id="edge68" class="edge">
<title>34&#45;&gt;35</title>
<path fill="none" stroke="black" d="M1397.54,-212.09C1519.79,-214.67 1703.43,-217.87 1863.27,-217.87 1863.27,-217.87 1863.27,-217.87 2131.78,-217.87 2275.68,-217.87 2441.01,-231.19 2548.45,-241.63"/>
<polygon fill="black" stroke="black" points="2548.38,-245.14 2558.67,-242.63 2549.06,-238.17 2548.38,-245.14"/>
</g>
<!-- 38 -->
<g id="node39" class="node">
<title>38</title>
<ellipse fill="#ffffc0" stroke="black" cx="2930.33" cy="-253.87" rx="115.02" ry="26.74"/>
<text text-anchor="middle" x="2930.33" y="-257.67" font-family="Times,serif" font-size="14.00">ALU BinaryOps.ADD</text>
<text text-anchor="middle" x="2930.33" y="-242.67" font-family="Times,serif" font-size="14.00">dtypes.int</text>
</g>
<!-- 35&#45;&gt;38 -->
<g id="edge69" class="edge">
<title>35&#45;&gt;38</title>
<path fill="none" stroke="black" d="M2779.3,-253.87C2787.64,-253.87 2796.07,-253.87 2804.47,-253.87"/>
<polygon fill="black" stroke="black" points="2804.68,-257.37 2814.68,-253.87 2804.68,-250.37 2804.68,-257.37"/>
</g>
<!-- 36&#45;&gt;37 -->
<g id="edge70" class="edge">
<title>36&#45;&gt;37</title>
<path fill="none" stroke="black" d="M1046.31,-91.99C1080.47,-99.22 1119.61,-107.52 1154.87,-114.99"/>
<polygon fill="black" stroke="black" points="1154.2,-118.43 1164.71,-117.08 1155.65,-111.58 1154.2,-118.43"/>
</g>
<!-- 37&#45;&gt;38 -->
<g id="edge71" class="edge">
<title>37&#45;&gt;38</title>
<path fill="none" stroke="black" d="M1385.32,-148.38C1507.23,-158.58 1697.8,-171.87 1863.27,-171.87 1863.27,-171.87 1863.27,-171.87 2398.3,-171.87 2568.76,-171.87 2611.29,-187.74 2779.07,-217.87 2800.04,-221.64 2822.46,-226.53 2843.42,-231.49"/>
<polygon fill="black" stroke="black" points="2842.71,-234.92 2853.25,-233.85 2844.34,-228.11 2842.71,-234.92"/>
</g>
<!-- 41 -->
<g id="node42" class="node">
<title>41</title>
<ellipse fill="#ffffc0" stroke="black" cx="3196.85" cy="-457.87" rx="115.02" ry="26.74"/>
<text text-anchor="middle" x="3196.85" y="-461.67" font-family="Times,serif" font-size="14.00">ALU BinaryOps.ADD</text>
<text text-anchor="middle" x="3196.85" y="-446.67" font-family="Times,serif" font-size="14.00">dtypes.int</text>
</g>
<!-- 38&#45;&gt;41 -->
<g id="edge72" class="edge">
<title>38&#45;&gt;41</title>
<path fill="none" stroke="black" d="M2964.83,-279.71C3013,-316.85 3101.76,-385.31 3154.12,-425.69"/>
<polygon fill="black" stroke="black" points="3152.15,-428.59 3162.2,-431.92 3156.42,-423.04 3152.15,-428.59"/>
</g>
<!-- 39&#45;&gt;40 -->
<g id="edge73" class="edge">
<title>39&#45;&gt;40</title>
<path fill="none" stroke="black" d="M1083.75,-757.18C1092.31,-757.07 1100.98,-756.95 1109.63,-756.84"/>
<polygon fill="black" stroke="black" points="1109.82,-760.33 1119.78,-756.7 1109.73,-753.34 1109.82,-760.33"/>
</g>
<!-- 40&#45;&gt;41 -->
<g id="edge74" class="edge">
<title>40&#45;&gt;41</title>
<path fill="none" stroke="black" d="M1398.51,-754.2C1488.39,-752.5 1607.94,-747.86 1713.01,-735.87 2246.04,-675.04 2875.39,-533.58 3105.69,-479.46"/>
<polygon fill="black" stroke="black" points="3106.76,-482.8 3115.7,-477.1 3105.16,-475.99 3106.76,-482.8"/>
</g>
<!-- 44 -->
<g id="node45" class="node">
<title>44</title>
<ellipse fill="#ffffc0" stroke="black" cx="3463.37" cy="-457.87" rx="115.02" ry="26.74"/>
<text text-anchor="middle" x="3463.37" y="-461.67" font-family="Times,serif" font-size="14.00">ALU BinaryOps.ADD</text>
<text text-anchor="middle" x="3463.37" y="-446.67" font-family="Times,serif" font-size="14.00">dtypes.int</text>
</g>
<!-- 41&#45;&gt;44 -->
<g id="edge75" class="edge">
<title>41&#45;&gt;44</title>
<path fill="none" stroke="black" d="M3312.33,-457.87C3320.67,-457.87 3329.11,-457.87 3337.5,-457.87"/>
<polygon fill="black" stroke="black" points="3337.71,-461.37 3347.71,-457.87 3337.71,-454.37 3337.71,-461.37"/>
</g>
<!-- 42&#45;&gt;43 -->
<g id="edge76" class="edge">
<title>42&#45;&gt;43</title>
<path fill="none" stroke="black" d="M1350.94,-45.76C1387.68,-53.4 1430.31,-62.26 1468.31,-70.16"/>
<polygon fill="black" stroke="black" points="1467.88,-73.65 1478.38,-72.26 1469.3,-66.79 1467.88,-73.65"/>
</g>
<!-- 43&#45;&gt;44 -->
<g id="edge77" class="edge">
<title>43&#45;&gt;44</title>
<path fill="none" stroke="black" d="M1707,-99.69C1819.42,-105.66 1985.13,-112.87 2129.78,-112.87 2129.78,-112.87 2129.78,-112.87 2931.33,-112.87 3157.89,-112.87 3363.79,-336.41 3435.5,-423.61"/>
<polygon fill="black" stroke="black" points="3432.79,-425.83 3441.82,-431.37 3438.21,-421.41 3432.79,-425.83"/>
</g>
<!-- 47 -->
<g id="node48" class="node">
<title>47</title>
<ellipse fill="#ffffc0" stroke="black" cx="3729.88" cy="-716.87" rx="115.02" ry="26.74"/>
<text text-anchor="middle" x="3729.88" y="-720.67" font-family="Times,serif" font-size="14.00">ALU BinaryOps.ADD</text>
<text text-anchor="middle" x="3729.88" y="-705.67" font-family="Times,serif" font-size="14.00">dtypes.int</text>
</g>
<!-- 44&#45;&gt;47 -->
<g id="edge78" class="edge">
<title>44&#45;&gt;47</title>
<path fill="none" stroke="black" d="M3491.19,-484.13C3539.61,-531.54 3641.53,-631.34 3694.81,-683.51"/>
<polygon fill="black" stroke="black" points="3692.4,-686.05 3701.99,-690.54 3697.3,-681.04 3692.4,-686.05"/>
</g>
<!-- 45&#45;&gt;46 -->
<g id="edge79" class="edge">
<title>45&#45;&gt;46</title>
<path fill="none" stroke="black" d="M1347.74,-807.26C1364.77,-802.56 1382.32,-797.07 1398.41,-790.87 1441.39,-774.3 1487.49,-749.92 1521.47,-730.56"/>
<polygon fill="black" stroke="black" points="1523.36,-733.51 1530.28,-725.5 1519.87,-727.44 1523.36,-733.51"/>
</g>
<!-- 46&#45;&gt;47 -->
<g id="edge80" class="edge">
<title>46&#45;&gt;47</title>
<path fill="none" stroke="black" d="M1708.99,-706.28C1821.38,-711.1 1986.01,-716.87 2129.78,-716.87 2129.78,-716.87 2129.78,-716.87 3197.85,-716.87 3336.95,-716.87 3496.55,-716.87 3604.17,-716.87"/>
<polygon fill="black" stroke="black" points="3604.42,-720.37 3614.42,-716.87 3604.42,-713.37 3604.42,-720.37"/>
</g>
<!-- 47&#45;&gt;48 -->
<g id="edge81" class="edge">
<title>47&#45;&gt;48</title>
<path fill="none" stroke="black" d="M3779.6,-741.14C3831.83,-767.17 3914.71,-808.46 3970.18,-836.1"/>
<polygon fill="black" stroke="black" points="3968.67,-839.26 3979.18,-840.58 3971.79,-832.99 3968.67,-839.26"/>
</g>
<!-- 48&#45;&gt;49 -->
<g id="edge82" class="edge">
<title>48&#45;&gt;49</title>
<path fill="none" stroke="black" d="M4110,-884.03C4141.88,-891.66 4177.7,-900.23 4206.32,-907.08"/>
<polygon fill="black" stroke="black" points="4205.59,-910.5 4216.13,-909.42 4207.21,-903.69 4205.59,-910.5"/>
</g>
</g>
</svg>
